<svg xmlns="http://www.w3.org/2000/svg" viewBox="0 0 222.78 145"><defs><style>.cls-1{fill:none;stroke:#000;stroke-miterlimit:10;stroke-width:5px;}</style></defs><title>brain</title><g id="Calque_2" data-name="Calque 2"><g id="Calque_1-2" data-name="Calque 1"><polygon class="cls-1" points="106.62 2.5 82.54 56 116.43 56 99.48 101.48 146.75 41.74 114.64 41.74 138.72 2.5 106.62 2.5"/><path class="cls-1" d="M69.61,52s-21.4,0-28.54,23.9c0,0-24.08,1.07-25.86,26,0,0-10.7,7.31-12.48,20.78s7.13,19.8,12.48,19.8H92.35s13.82,0,13.82-13.82"/><path class="cls-1" d="M153.17,52s21.4,0,28.54,23.9c0,0,24.08,1.07,25.86,26,0,0,10.7,7.31,12.48,20.78s-7.13,19.8-12.48,19.8H130.43s-13.82,0-13.82-13.82"/><path class="cls-1" d="M43.31,115.75s3.57-12.48,16.05-14.27c0,0,2.68-15.16,16.05-15.16"/><path class="cls-1" d="M173.5,115.75s-3.57-12.48-16.05-14.27c0,0-2.68-15.16-16.05-15.16"/></g></g></svg>