<svg xmlns="http://www.w3.org/2000/svg" viewBox="0 0 189.07 173.94"><defs><style>.cls-1{fill:none;stroke:#000;stroke-miterlimit:10;stroke-width:5px;}</style></defs><title>com</title><g id="Calque_2" data-name="Calque 2"><g id="Calque_1-2" data-name="Calque 1"><path class="cls-1" d="M114.83,2.5H25.75A18.75,18.75,0,0,0,7,21.26V86.78a18.67,18.67,0,0,0,18.46,18.69L7.36,137.12l48-31.65h59.49A18.75,18.75,0,0,0,133.59,86.7V21.26A18.75,18.75,0,0,0,114.83,2.5Z"/><circle class="cls-1" cx="38.1" cy="53.98" r="7.63"/><circle class="cls-1" cx="69.91" cy="53.98" r="7.63"/><circle class="cls-1" cx="101.71" cy="53.98" r="7.63"/><path class="cls-1" d="M75.63,113.09v10.68a15.69,15.69,0,0,0,15.71,15.71h50l40.35,26.62-15.18-26.62a15.76,15.76,0,0,0,15.56-15.71V68.7A15.69,15.69,0,0,0,166.39,53H141.29"/></g></g></svg>