<svg width="145" height="141" viewBox="0 0 145 141" fill="none" xmlns="http://www.w3.org/2000/svg">
<path d="M40.8 39.9L0 0" transform="translate(77 81.5)" stroke="black" stroke-width="2" stroke-miterlimit="10"/>
<path d="M43.1 78.2L79 42.3L51.1 14.3L0 0L15.1 50L43.1 78.2Z" transform="translate(1.5 5.5)" stroke="black" stroke-width="2" stroke-miterlimit="10"/>
<path d="M2.44141e-05 35.8L39.9 76L75.9 40.3L35.9 -1.2207e-05L2.44141e-05 35.8Z" transform="translate(59.9 63.3)" stroke="black" stroke-width="2" stroke-miterlimit="10"/>
<path d="M28.2 28.2L2.44141e-05 2.44141e-05" transform="translate(33.9 38.4)" stroke="black" stroke-width="2" stroke-miterlimit="10"/>
<path d="M82 34.5315L1.2207e-05 116.532L15.4 131.932L97.4 49.9315C97.4 49.9315 112.2 58.5315 125.8 44.9315C139.4 31.3315 130.4 18.8315 130.4 18.8315L112.9 36.3315L96.9 20.3315L114.4 2.8315C114.4 2.8315 102.2 -5.86848 89 7.23152C75.8 20.4315 82 34.5315 82 34.5315Z" transform="translate(8.69995 2.96848)" stroke="black" stroke-width="4" stroke-miterlimit="10"/>
<path d="M-2.44141e-05 35.7L36 -1.2207e-05" transform="translate(16.6 19.8)" stroke="black" stroke-width="2" stroke-miterlimit="10"/>
</svg>
