<svg xmlns="http://www.w3.org/2000/svg" viewBox="0 0 143.7 139.84"><defs><style>.cls-1{fill:none;stroke:#1d1d1b;stroke-miterlimit:10;stroke-width:5px;}</style></defs><title>github</title><g id="Calque_2" data-name="Calque 2"><g id="Calque_1-2" data-name="Calque 1"><path class="cls-1" d="M49.22,136.76S-10.3,117.26,5,50.18C22.39,3.18,63.35,2.5,71.47,2.5s59.21,1.36,69.09,63c5.45,34.4-25.2,63.86-45.63,71.26-6.07,2.13-6.43-2.23-6.34-3.42s.18-20.82.18-20.82S88.22,104.7,84,101.7c0,0,22.37.27,29.37-19s-2.09-31.64-4.91-33.65c0,0,3.27-7.91-.64-18.46,0,0-7.91-1-19.1,7.27a65.58,65.58,0,0,0-34.83-.09S43.85,30,35.12,30.59c0,0-4.36,10.46-.73,18.19,0,0-14.28,13.19-3.09,37.74,6.46,13.55,27.28,15.28,27.28,15.28s-4.36,5.09-4.18,9.18c0,0-10,5.37-17.28-1.91C32.21,104,32.48,100.61,25,98.25s-4.73,2.18-2.55,3.64a21.35,21.35,0,0,1,7.37,8.55c1.82,4.09,5.37,11.82,16.82,11.18,6.55-.55,7.46-.91,7.46-.91l.18,12.82S54,137.91,49.22,136.76Z"/></g></g></svg>