<svg xmlns="http://www.w3.org/2000/svg" viewBox="0 0 128.5 124.52"><defs><style>.cls-1,.cls-2{fill:none;stroke-miterlimit:10;stroke-width:5px;}.cls-1{stroke:#1d1d1b;}.cls-2{stroke:#000;}</style></defs><title>psd</title><g id="Calque_2" data-name="Calque 2"><g id="Calque_1-2" data-name="Calque 1"><rect class="cls-1" x="2.5" y="2.5" width="123.5" height="119.52" rx="34.47" ry="34.47"/><rect class="cls-1" x="11.79" y="11.49" width="104.93" height="101.54" rx="24.34" ry="24.34"/><path class="cls-2" d="M42.09,71.41V87.91H31.36c0-.12,0-.24,0-.36q0-25.32,0-50.64c0-.22,0-.37.31-.38,5.07-.05,10.15-.16,15.22-.17a25.9,25.9,0,0,1,8.42,1.31A14.55,14.55,0,0,1,65.52,49.5a19.08,19.08,0,0,1-1.2,11.17,15.34,15.34,0,0,1-4,5.36,19.92,19.92,0,0,1-10.82,5,60.69,60.69,0,0,1-7,.43Zm0-26.87c0,.13,0,.25,0,.36q0,8.5,0,17c0,.31.1.41.39.41h3.15a11.84,11.84,0,0,0,3.51-.51,7.91,7.91,0,0,0,5.13-4.39A10,10,0,0,0,54.81,51a8,8,0,0,0-7.28-6.36c-1.7-.13-3.41-.08-5.12-.1A2.55,2.55,0,0,0,42.1,44.55Z"/><path class="cls-2" d="M95.07,59.29c-.66-.3-1.3-.62-2-.9a26,26,0,0,0-6.4-2,7.25,7.25,0,0,0-4.42.48,2.76,2.76,0,0,0-1.47,3.23,2.88,2.88,0,0,0,1.32,1.62,17,17,0,0,0,3.21,1.53c1.63.65,3.29,1.26,4.89,2a13.23,13.23,0,0,1,4,2.81,10.09,10.09,0,0,1,2.84,6,12.26,12.26,0,0,1-.74,6.13,11.46,11.46,0,0,1-5.89,6.15A18.1,18.1,0,0,1,84,88.06a24.25,24.25,0,0,1-4.29,0,23,23,0,0,1-4.81-1,30.24,30.24,0,0,1-4.55-1.88.54.54,0,0,1-.35-.56c0-2.58,0-5.16,0-7.74,0-.12,0-.23,0-.38l.26.12a27.72,27.72,0,0,0,8.33,3,10.62,10.62,0,0,0,4.8-.11,4.56,4.56,0,0,0,.8-.31,2.82,2.82,0,0,0,1.62-3,4.92,4.92,0,0,0-2.38-3.59,16.29,16.29,0,0,0-3.84-1.74,25.86,25.86,0,0,1-6.09-2.94,9.64,9.64,0,0,1-3.19-3.4,8,8,0,0,1-.84-4.16,11.54,11.54,0,0,1,1.78-5.87,12.75,12.75,0,0,1,6.29-5,20.19,20.19,0,0,1,10.64-1A22.76,22.76,0,0,1,94.9,50.6a.39.39,0,0,1,.2.28q0,4.16,0,8.31A.41.41,0,0,1,95.07,59.29Z"/></g></g></svg>