<svg xmlns="http://www.w3.org/2000/svg" viewBox="0 0 83.77 106.68"><defs><style>.cls-1{fill:none;stroke:#000;stroke-miterlimit:10;stroke-width:5px;}</style></defs><title>sublimetext</title><g id="Calque_2" data-name="Calque 2"><g id="Calque_1-2" data-name="Calque 1"><path class="cls-1" d="M77.94,2.81,6.08,25.63s-3.55.77-3.55,4.16V51.24S1.91,54.63,6.38,56,77.94,79,77.94,79s3.32,1.9,3.32-2.15V54.28s.17-2.81-2.31-3.55-31-10-31-10l30.58-9.59a3.3,3.3,0,0,0,2.73-3.55V4.11S81.59,1.65,77.94,2.81Z"/><path class="cls-1" d="M36.67,65.72,5.12,75.64s-2.62.81-2.62,3v23.48s-.06,2.83,3.1,1.86S78.7,80.9,78.7,80.9a3.35,3.35,0,0,0,2.48-3.08"/></g></g></svg>