<svg xmlns="http://www.w3.org/2000/svg" viewBox="0 0 143.27 153.05"><defs><style>.cls-1{fill:none;}.cls-1,.cls-3{stroke:#000;stroke-miterlimit:10;stroke-width:5px;}.cls-2,.cls-3{fill:#fff;}</style></defs><title>systeme_design</title><g id="Calque_2" data-name="Calque 2"><g id="Calque_1-2" data-name="Calque 1"><circle class="cls-1" cx="84.42" cy="77.65" r="47"/><polygon class="cls-2" points="84.43 39.3 92.19 19.89 123.89 36.86 116.25 56.07 84.43 39.3"/><polygon class="cls-2" points="118.91 97.46 132.06 113.71 101.76 133.09 88.73 117.04 118.91 97.46"/><polygon class="cls-2" points="49.8 102.92 29.27 106.86 26.45 71.01 46.75 67.07 49.8 102.92"/><polygon class="cls-3" points="51.16 73.04 2.92 82.06 6.77 102.78 55.02 93.76 71.91 79.53 51.16 73.04"/><line class="cls-1" x1="51.16" y1="73.04" x2="55.02" y2="93.76"/><line class="cls-3" x1="4.84" y1="92.42" x2="53.02" y2="83.02"/><polygon class="cls-3" points="107.93 56.69 126.47 11.24 106.96 3.26 88.42 48.71 91.24 70.62 107.93 56.69"/><line class="cls-1" x1="107.93" y1="56.69" x2="88.42" y2="48.71"/><line class="cls-3" x1="116.71" y1="7.25" x2="98.53" y2="52.85"/><polygon class="cls-3" points="93.52 110.21 122.86 149.56 139.77 136.97 110.42 97.62 90.2 88.73 93.52 110.21"/><line class="cls-1" x1="93.51" y1="110.21" x2="110.42" y2="97.62"/><line class="cls-3" x1="131.32" y1="143.26" x2="101.66" y2="104.15"/></g></g></svg>