<svg xmlns="http://www.w3.org/2000/svg" viewBox="0 0 146.73 142.37"><defs><style>.cls-1{fill:none;stroke:#000;stroke-miterlimit:10;stroke-width:5px;}</style></defs><title>outils_design</title><g id="Calque_2" data-name="Calque 2"><g id="Calque_1-2" data-name="Calque 1"><line class="cls-1" x1="18.81" y1="55.03" x2="54.81" y2="19.33"/><line class="cls-1" x1="120.01" y1="120.93" x2="79.21" y2="81.03"/><line class="cls-1" x1="64.31" y1="66.13" x2="36.11" y2="37.93"/><path class="cls-1" d="M92.91,37l-82,82,15.4,15.4,82-82s14.8,8.6,28.4-5,4.6-26.1,4.6-26.1l-17.5,17.5-16-16,17.5-17.5s-12.2-8.7-25.4,4.4S92.91,37,92.91,37Z"/><polygon class="cls-1" points="46.81 83.23 82.71 47.33 54.81 19.33 3.71 5.03 18.81 55.03 46.81 83.23"/><polygon class="cls-1" points="62.11 98.63 102.01 138.83 138.01 103.13 98.01 62.83 62.11 98.63"/></g></g></svg>