<svg xmlns="http://www.w3.org/2000/svg" viewBox="0 0 150.77 150.77"><defs><style>.cls-1{fill:none;stroke:#1d1d1b;stroke-miterlimit:10;stroke-width:5px;}</style></defs><title>wordpress</title><g id="Calque_2" data-name="Calque 2"><g id="Calque_1-2" data-name="Calque 1"><circle class="cls-1" cx="75.38" cy="75.38" r="72.88"/><path class="cls-1" d="M47.41,132.41,17,50s-11,30.58,1,52.35S47.41,132.41,47.41,132.41Z"/><path class="cls-1" d="M22.48,39.69S43,12.14,73.18,12.14s44.91,16.12,44.91,16.12-14.19,2.07-11.3,14.6,15.29,18.46,11.3,33.75-10.47,36.09-10.47,36.09L84.61,46h5.71s4.32.39,4.32-3.2S90.48,40,90.48,40H57.69s-3.18.16-3.18,3.18,4,2.69,4,2.69H63.4l9.87,27.25L60,112.71,36.61,45.79h5.95s4,.16,4-3-3.71-2.65-3.71-2.65H22.15Z"/><path class="cls-1" d="M57.78,136.68,76.39,82.79,96,135.43S84.39,142.85,57.78,136.68Z"/><path class="cls-1" d="M108.16,130.17l21-60.74S133,56,131.94,46.35c0,0,14.35,23.42,3,52.86C127.29,119.15,108.16,130.17,108.16,130.17Z"/></g></g></svg>