<svg xmlns="http://www.w3.org/2000/svg" viewBox="0 0 128.5 124.52"><defs><style>.cls-1,.cls-2{fill:none;stroke-miterlimit:10;stroke-width:5px;}.cls-1{stroke:#000;}.cls-2{stroke:#1d1d1b;}</style></defs><title>xd</title><g id="Calque_2" data-name="Calque 2"><g id="Calque_1-2" data-name="Calque 1"><path class="cls-1" d="M66.13,86.46c-3.41,0-6.36.1-9.29-.08-.67,0-1.52-.93-1.87-1.64-2.84-5.68-5.58-11.42-8.35-17.13-.31-.64-.65-1.28-1.15-2.24-.39.77-.68,1.3-.93,1.84-2.69,5.76-5.41,11.5-8,17.28-.65,1.42-1.43,2.13-3.11,2-2.4-.16-4.82,0-7.56,0,.34-.8.52-1.33.78-1.82,4.07-7.78,8.12-15.57,12.27-23.3A4.09,4.09,0,0,0,39,57C35,49.4,31.24,41.7,27.39,34c-.34-.68-.65-1.38-1.14-2.44,3.39,0,6.44-.06,9.49.07.48,0,1.07.85,1.35,1.43C39.76,38.71,42.38,44.36,45,50c.3.65.62,1.29,1.1,2.28.42-.83.74-1.41,1-2,2.65-5.7,5.33-11.39,7.91-17.12a2.34,2.34,0,0,1,2.55-1.6c2.41.07,4.83,0,7.63,0-.33.86-.5,1.44-.78,2-4,7.79-8.08,15.59-12.2,23.34a2.7,2.7,0,0,0,0,2.88c4.31,8.17,8.56,16.37,12.82,24.57C65.4,84.88,65.65,85.46,66.13,86.46Z"/><path class="cls-1" d="M91.21,45.47c0-3.55,0-6.94,0-10.33,0-4.13-.56-3.54,3.5-3.56,1.75,0,4.14-.5,5.07.42s.45,3.31.45,5.05q0,20.75,0,41.5c0,.66,0,1.31,0,2,.2,3.82.21,3.85-3.36,5A28.84,28.84,0,0,1,83,86.83c-6.23-1-10.79-4.37-13.08-10.31a25.48,25.48,0,0,1-.24-18.45,19,19,0,0,1,18-12.6C88.71,45.46,89.82,45.47,91.21,45.47Zm.13,20.73c0-3.61-.08-7.21,0-10.81.05-1.56-.56-2-2-2.21A10.13,10.13,0,0,0,78.77,59.6,18.49,18.49,0,0,0,78.63,73a9.47,9.47,0,0,0,11,6.18c1.23-.22,1.78-.65,1.75-2C91.27,73.54,91.34,69.86,91.34,66.19Z"/><rect class="cls-2" x="2.5" y="2.5" width="123.5" height="119.52" rx="34.47" ry="34.47"/><rect class="cls-2" x="11.79" y="11.49" width="104.93" height="101.54" rx="24.34" ry="24.34"/></g></g></svg>