<svg width="1922" height="838" viewBox="0 0 1922 838" fill="none" xmlns="http://www.w3.org/2000/svg">
<path d="M-9.53674e-08 142.999C119 208.999 218 24.9987 368 74.9987C518 124.999 572 -11.0013 728 31.9987C884 74.9987 989 -49.0013 1103 22.9987C1217 94.9987 1355 27.9987 1478 71.9987C1601 115.999 1773.7 1.99871 1920 1.99871" transform="translate(1.5 2.50195)" stroke="black" stroke-width="5" stroke-miterlimit="10"/>
<path d="M-9.53674e-08 137.711C92.9 187.611 177.1 90.2111 279.5 66.3111C308.5 59.4111 339.2 59.3112 372.2 70.4112C441.6 93.6112 491.1 79.1112 539.5 60.2112C596.3 38.1112 650.3 7.61127 734.4 29.0113C855.4 59.7113 946 -2.58878 1034.8 0.211218C1060 1.01122 1084.6 7.01127 1109.5 22.0113C1157.2 50.5113 1208.4 54.7112 1262.6 54.4112C1337.8 54.0112 1412.2 44.1111 1484.3 69.1111C1606.4 111.411 1776.6 -1.28873 1920 0.0112665" transform="translate(1.5 28.0898)" stroke="black" stroke-width="5" stroke-miterlimit="10"/>
<path d="M-9.53674e-08 134.448C92.8 182.648 180.5 89.2483 282.8 63.8483C312.1 56.5483 343 56.4484 376.3 67.6484C445.7 90.9484 495.7 78.6482 544.6 61.2482C602.6 40.6482 656.2 8.14832 740.8 27.8483C861.2 55.7483 951.7 -0.951772 1041.2 2.24823C1066.7 3.14823 1091.2 8.74833 1116 22.8483C1163.5 49.8483 1213.9 52.3483 1268.9 52.0483C1345.4 51.5483 1417.8 43.7484 1490.5 68.1484C1611.8 108.848 1779.3 -2.65172 1919.9 0.0482772" transform="translate(1.5 51.6523)" stroke="black" stroke-width="5" stroke-miterlimit="10"/>
<path d="M-9.53674e-08 131.312C92.7 177.912 183.9 88.2116 286.2 61.6116C315.8 53.9116 347 53.9117 380.5 65.2117C449.8 88.6117 500.5 78.4118 549.8 62.5118C609.1 43.4118 662.3 9.01167 747.2 26.9117C866.9 52.1117 957.4 1.01177 1047.6 4.51177C1073.4 5.51177 1097.9 10.7117 1122.6 23.9117C1169.9 49.2117 1219.5 50.2117 1275.3 49.9117C1353.2 49.4117 1423.5 43.6116 1496.8 67.3116C1617.2 106.412 1782.1 -3.98838 1919.8 0.111624" transform="translate(1.5 75.0898)" stroke="black" stroke-width="5" stroke-miterlimit="10"/>
<path d="M-9.53674e-08 128.194C92.6 173.094 187.3 87.1944 289.5 59.2944C319.4 51.0944 350.9 51.1944 384.7 62.6944C454 86.0944 505.2 78.1944 555.1 63.7944C615.6 46.2944 668.4 9.8944 753.8 25.9944C872.7 48.3944 963.3 2.99435 1054.2 6.69435C1080.3 7.79435 1104.8 12.5944 1129.3 24.9944C1176.4 48.6944 1225.2 48.0944 1281.8 47.6944C1361 47.0944 1429.3 43.2944 1503.3 66.4944C1622.8 103.994 1785.1 -5.20565 1920 0.194352" transform="translate(1.5 98.5059)" stroke="black" stroke-width="5" stroke-miterlimit="10"/>
<path d="M-9.53674e-08 124.909C92.5 168.109 190.7 86.0092 292.9 56.9092C323.1 48.3092 354.9 48.5093 388.9 60.0093C458.2 83.5093 510 77.9092 560.3 64.9092C622.1 48.9092 674.4 10.6092 760.2 24.9092C878.4 44.6092 968.9 4.80907 1060.6 8.80907C1087.1 10.0091 1111.5 14.5092 1135.8 25.9092C1182.7 48.0092 1230.6 45.8092 1288.1 45.4092C1368.6 44.8092 1434.9 43.0091 1509.5 65.6091C1628.1 101.509 1787.9 -6.49093 1919.9 0.309074" transform="translate(1.5 122.092)" stroke="black" stroke-width="5" stroke-miterlimit="10"/>
<path d="M-9.53674e-08 122.04C92.4 163.64 194.1 85.2402 296.2 54.8402C326.7 45.7402 358.8 46.0401 393 57.7401C462.2 81.3401 514.7 77.9402 565.4 66.3402C628.5 51.9402 680.2 11.6402 766.5 24.1402C884 41.2402 974.5 6.94024 1066.9 11.1402C1093.7 12.4402 1118.1 16.5401 1142.3 27.0401C1189.1 47.4401 1236.1 43.7401 1294.4 43.2401C1376.2 42.5401 1440.5 42.8402 1515.8 64.8402C1633.5 99.1402 1790.7 -7.65971 1919.9 0.44029" transform="translate(1.5 145.16)" stroke="black" stroke-width="5" stroke-miterlimit="10"/>
<path d="M-9.53674e-08 118.694C92.3 158.594 197.5 83.9943 299.6 52.3943C330.4 42.8943 362.8 43.2942 397.2 55.0942C466.4 78.7942 519.5 77.6944 570.6 67.4944C635 54.6944 686.2 12.3942 773 23.0942C889.7 37.4942 980.3 8.79441 1073.3 13.2944C1100.4 14.6944 1124.8 18.3942 1148.8 28.0942C1195.4 46.8942 1241.6 41.5942 1300.7 41.0942C1383.9 40.3942 1446.1 42.6942 1522 64.0942C1638.7 96.8942 1793.4 -8.80579 1919.7 0.594212" transform="translate(1.5 168.807)" stroke="black" stroke-width="5" stroke-miterlimit="10"/>
<path d="M-9.53674e-08 115.7C92.2 154 200.9 82.9995 302.9 50.1995C334 40.1995 366.7 40.6995 401.3 52.6995C470.5 76.3995 524.3 77.5995 575.7 68.8995C641.5 57.6995 692 13.3994 779.3 22.2994C895.2 34.0994 985.9 10.8994 1079.6 15.5994C1107 16.9994 1131.4 20.3995 1155.3 29.1995C1201.8 46.3995 1247.1 39.4996 1307 38.9996C1391.5 38.1996 1451.6 42.5994 1528.3 63.2994C1644.1 94.5994 1796.2 -10.1006 1919.7 0.799359" transform="translate(1.5 192.102)" stroke="black" stroke-width="5" stroke-miterlimit="10"/>
<path d="M-9.53674e-08 112.904C92.1 149.504 204.3 82.2038 306.3 48.2038C337.7 37.7038 370.7 38.404 405.5 50.404C474.6 74.204 529.1 77.7039 580.9 70.3039C648 60.7039 698 14.5039 785.7 21.5039C900.8 30.7039 991.6 13.0039 1086 18.0039C1113.7 19.5039 1138.1 22.504 1161.8 30.404C1208.1 45.904 1252.6 37.504 1313.3 36.904C1399.1 36.104 1457.2 42.504 1534.5 62.604C1649.3 92.404 1799 -11.1961 1919.6 1.00387" transform="translate(1.5 215.197)" stroke="black" stroke-width="5" stroke-miterlimit="10"/>
<path d="M-9.53674e-08 109.55C92 144.45 207.7 80.9498 309.6 45.7498C341.3 34.8498 374.5 35.5498 409.7 47.7498C478.8 71.6498 533.9 77.4498 586.1 71.4498C654.5 63.5498 703.9 15.3498 792.2 20.4498C906.5 27.1498 997.3 14.8498 1092.5 20.1498C1120.6 21.7498 1144.9 24.3498 1168.4 31.4498C1214.6 45.3498 1258.2 35.3498 1319.7 34.7498C1406.8 33.8498 1462.8 42.4497 1540.9 61.8497C1654.8 90.1497 1801.9 -12.3502 1919.7 1.24985" transform="translate(1.5 238.852)" stroke="black" stroke-width="5" stroke-miterlimit="10"/>
<path d="M-9.53674e-08 106.702C91.9 140.002 211.1 80.1021 313 43.7021C345 32.3021 378.5 33.2022 413.9 45.5022C482.9 69.5022 538.8 77.7022 591.4 73.0022C661.2 66.8022 709.9 16.6022 798.7 19.8022C912.1 24.0022 1003.1 17.0023 1099 22.6023C1127.4 24.3023 1151.7 26.5021 1175.1 32.7021C1221.1 44.9021 1263.9 33.4021 1326.2 32.7021C1414.7 31.8021 1468.6 42.4021 1547.3 61.2021C1660.2 88.1021 1804.8 -13.3978 1919.8 1.50218" transform="translate(1.5 261.998)" stroke="black" stroke-width="5" stroke-miterlimit="10"/>
<path d="M-9.53674e-08 103.778C91.8 135.378 214.5 79.178 316.3 41.678C348.6 29.778 382.4 30.7781 418 43.2781C487 67.2781 543.5 77.8781 596.5 74.4781C667.6 69.9781 716 12.4782 805 19.0782C917.3 27.4782 1008.7 19.1782 1105.3 25.0782C1134 26.8782 1158.3 28.6781 1181.5 33.9781C1227.4 44.5781 1269.3 31.4781 1332.4 30.7781C1422.2 29.7781 1474 42.5782 1553.4 60.5782C1665.3 86.0782 1807.4 -14.4219 1919.5 1.7781" transform="translate(1.5 285.223)" stroke="black" stroke-width="5" stroke-miterlimit="10"/>
<path d="M-9.53674e-08 100.723C91.7 130.623 217.8 78.1228 319.7 39.4228C352.3 27.0228 386.4 28.1229 422.2 40.7229C491.2 64.8229 548.4 77.8229 601.7 75.7229C674.2 72.9229 721.8 13.2229 811.5 18.2229C923.1 24.3229 1014.5 21.2227 1111.8 27.3227C1140.8 29.2227 1165.1 30.6228 1188.1 35.1228C1233.9 44.0228 1274.9 29.4229 1338.8 28.7229C1429.9 27.6229 1479.7 42.6228 1559.8 59.9228C1670.8 83.9228 1810.4 -15.5772 1919.6 2.12278" transform="translate(1.5 308.578)" stroke="black" stroke-width="5" stroke-miterlimit="10"/>
<path d="M-9.53674e-08 97.747C91.6 126.047 221.2 77.1469 323 37.3469C355.9 24.5469 390.3 25.7469 426.3 38.4469C495.2 62.6469 553.2 74.947 606.8 77.247C680.6 80.447 727.5 14.4468 817.8 17.5468C928.7 21.3468 1020.1 23.4469 1118 29.8469C1147.4 31.8469 1171.6 32.8469 1194.5 36.4469C1240.2 43.6469 1280.3 27.547 1345 26.747C1437.4 25.647 1485.1 42.6469 1565.9 59.3469C1675.9 82.0469 1813 -16.5531 1919.4 2.44695" transform="translate(1.5 331.854)" stroke="black" stroke-width="5" stroke-miterlimit="10"/>
<path d="M-9.53674e-08 94.8963C91.5 121.496 224.6 76.1964 326.4 35.2964C359.5 21.9964 394.3 23.2963 430.5 36.1963C499.4 60.3963 558.1 75.1963 612 78.6963C687 83.5963 733.4 21.2964 824.2 16.7964C934.3 11.2964 1025.7 25.5964 1124.4 32.2964C1154.1 34.3964 1178.3 34.9963 1201 37.6963C1246.5 43.2963 1285.8 25.5964 1351.3 24.7964C1445.1 23.5964 1490.7 42.7964 1572.2 58.7964C1681.2 80.0964 1815.8 -17.5036 1919.4 2.79644" transform="translate(1.5 355.004)" stroke="black" stroke-width="5" stroke-miterlimit="10"/>
<path d="M-9.53674e-08 92.0943C91.4 116.994 228 75.3941 329.7 33.3941C363.1 19.5941 398.2 21.0942 434.7 33.9942C503.5 58.2942 562.8 78.4942 617.2 80.2942C693.7 82.7942 739.3 22.7941 830.7 16.1941C940 8.29414 1031.5 27.8942 1130.9 34.7942C1160.9 36.9942 1185.1 37.0943 1207.7 39.0943C1253.1 42.9943 1291.4 23.7941 1357.8 22.8941C1452.9 21.6941 1496.4 42.9941 1578.6 58.1941C1686.6 78.1941 1818.7 -18.5059 1919.4 3.19414" transform="translate(1.5 378.006)" stroke="black" stroke-width="5" stroke-miterlimit="10"/>
<path d="M-9.53674e-08 89.1919C91.3 112.492 231.3 74.392 333.1 31.292C366.8 16.992 402.2 18.5919 438.9 31.6919C507.7 56.0919 567.6 78.792 622.5 81.792C700.4 86.092 745.3 24.092 837.2 15.492C945.6 5.29196 1037.3 30.092 1137.4 37.292C1167.7 39.492 1191.9 39.2921 1214.3 40.3921C1259.6 42.5921 1297 21.892 1364.2 20.992C1460.6 19.692 1502 43.2919 1585 57.6919C1692 76.2919 1821.7 -19.4079 1919.5 3.59206" transform="translate(1.5 401.209)" stroke="black" stroke-width="5" stroke-miterlimit="10"/>
<path d="M-9.53674e-08 86.4098C91.2 108.01 234.7 73.6098 336.4 29.4098C370.4 14.6098 406.1 16.4097 443 29.6097C511.8 54.1097 572.4 79.2098 627.6 83.4098C706.8 89.5098 751.1 25.6098 843.5 14.9098C951.1 2.40979 1042.9 32.4099 1143.7 39.8099C1174.4 42.1099 1198.6 42.3098 1220.7 41.7098C1265.9 40.6098 1302.4 20.0097 1370.4 19.1097C1468.2 17.8097 1507.5 43.5098 1591.1 57.2098C1697.1 74.5098 1824.3 -20.2901 1919.3 4.00989" transform="translate(1.5 424.291)" stroke="black" stroke-width="5" stroke-miterlimit="10"/>
<path d="M-9.53674e-08 83.5108C91.1 103.511 238 72.6108 339.8 27.3108C374.1 12.0108 410 13.9108 447.2 27.3108C515.9 51.8108 577.2 79.4107 632.8 84.9107C713.4 92.8107 757.1 27.0107 850 14.2107C956.8 -0.489275 1048.6 34.5108 1150.2 42.3108C1181.2 44.7108 1205.4 43.7109 1227.4 43.1109C1272.5 41.9109 1308.1 18.2107 1376.9 17.2107C1476 15.8107 1513.2 43.8107 1597.6 56.7107C1702.6 72.7107 1827.3 -21.2892 1919.5 4.51077" transform="translate(1.5 447.49)" stroke="black" stroke-width="5" stroke-miterlimit="10"/>
<path d="M-9.53674e-08 80.7723C91.1 99.0723 241.4 71.8722 343.1 25.4722C377.7 9.67221 413.9 11.7722 451.3 25.1722C520 49.7722 581.9 79.8722 637.9 86.4722C719.8 96.2722 762.9 28.5723 856.3 13.5723C962.3 -3.32769 1054.2 36.7721 1156.5 44.8721C1187.8 47.3721 1212 45.8722 1233.8 44.4722C1278.7 41.4722 1313.5 16.3721 1383.1 15.3721C1483.5 13.9721 1518.6 44.1723 1603.7 56.2723C1707.7 71.0723 1829.9 -22.1278 1919.2 4.97221" transform="translate(1.5 470.529)" stroke="black" stroke-width="5" stroke-miterlimit="10"/>
<path d="M-9.53674e-08 78.2601C91 94.8601 244.7 71.2601 346.5 23.7601C381.4 7.46013 417.9 9.66013 455.5 23.2601C524.1 47.9601 586.8 80.46 643.1 88.36C726.3 99.96 768.8 30.3601 862.7 13.2601C967.9 -5.83987 1059.9 39.36 1162.8 47.66C1194.4 50.26 1218.6 48.3599 1240.2 46.0599C1285 41.3599 1318.9 14.66 1389.4 13.66C1491.1 12.16 1524.1 44.66 1610 55.86C1713 69.36 1832.8 -22.9399 1919.2 5.46008" transform="translate(1.5 493.34)" stroke="black" stroke-width="5" stroke-miterlimit="10"/>
<path d="M-9.53674e-08 75.2017C90.9 90.2017 248.1 70.1018 349.8 21.6018C385 4.8018 421.8 7.20185 459.7 20.9018C528.3 45.7018 591.6 80.7017 648.3 89.8018C732.8 103.302 774.8 31.8017 869.2 12.5017C973.6 -8.7983 1065.7 41.5018 1169.3 50.1018C1201.2 52.8018 1225.4 50.4018 1246.9 47.4018C1291.6 41.0018 1324.6 12.8017 1395.9 11.8017C1499 10.3017 1529.8 45.0018 1616.4 55.4018C1718.4 67.7018 1835.7 -23.7983 1919.3 6.0017" transform="translate(1.5 516.699)" stroke="black" stroke-width="5" stroke-miterlimit="10"/>
<path d="M-9.53674e-08 72.6295C90.8 85.9295 251.4 69.4295 353.2 19.8295C388.6 2.52947 425.8 5.02957 463.9 18.9296C532.5 43.7296 596.4 81.3297 653.6 91.5297C739.5 106.93 780.9 33.5297 875.7 12.0297C979.3 -11.4703 1071.5 43.9296 1175.8 52.7296C1208.1 55.5296 1232.2 52.7295 1253.5 48.8295C1298.1 40.6295 1330.2 11.0297 1402.3 10.0297C1506.7 8.42967 1535.5 45.4297 1622.7 55.0297C1723.6 66.1297 1838.5 -24.5703 1919.3 6.52967" transform="translate(1.5 539.57)" stroke="black" stroke-width="5" stroke-miterlimit="10"/>
<path d="M-9.53674e-08 69.9512C90.7 81.5512 254.8 68.7513 356.5 18.0513C392.2 0.251297 429.7 2.9511 468 16.8511C536.5 41.7511 601.1 81.8512 658.7 93.2512C745.9 110.551 786.7 35.3513 882.1 11.5513C984.9 -14.0487 1077.1 46.3512 1182.2 55.4512C1214.8 58.3512 1238.9 55.1511 1260.1 50.3511C1304.5 40.4511 1335.8 9.35125 1408.7 8.25125C1514.4 6.65125 1541.1 45.8511 1629.1 54.6511C1729 64.5511 1841.4 -25.4488 1919.4 7.15115" transform="translate(1.5 562.549)" stroke="black" stroke-width="5" stroke-miterlimit="10"/>
<path d="M-9.53674e-08 67.2234C90.6 77.2234 258.1 67.9233 359.9 16.1233C395.9 -2.17668 433.7 0.623419 472.2 14.7234C540.7 39.7234 605.9 82.3234 663.9 94.9234C752.3 114.123 792.7 37.0233 888.5 11.1233C990.6 -16.5767 1082.8 48.8233 1188.6 58.1233C1221.5 61.1233 1245.6 57.4234 1266.6 51.9234C1310.9 40.2234 1341.3 7.72332 1415 6.62332C1522 4.92332 1546.6 46.5233 1635.3 54.3233C1734.2 63.0233 1844.2 -26.1766 1919.2 7.72342" transform="translate(1.5 585.578)" stroke="black" stroke-width="5" stroke-miterlimit="10"/>
<path d="M-9.53674e-08 64.6093C90.5 72.9093 261.4 67.2094 363.2 14.4094C399.5 -4.39065 437.6 -1.39074 476.3 12.8093C544.8 37.8093 610.6 83.0094 669 96.7094C758.7 117.909 798.6 38.9094 894.8 10.7094C996.2 -19.0906 1088.4 51.3094 1194.9 60.9094C1228.1 63.9094 1252.2 59.8092 1273 53.5092C1317.1 40.0092 1346.7 6.10935 1421.2 4.90935C1529.6 3.20935 1552 47.1092 1641.5 54.0092C1739.4 61.6092 1846.9 -26.8907 1919.1 8.30926" transform="translate(1.5 608.391)" stroke="black" stroke-width="5" stroke-miterlimit="10"/>
<path d="M-9.53674e-08 62.9541C90.4 69.6541 264.7 67.4539 366.6 13.5539C403.1 -5.74609 441.5 -2.64599 480.5 11.654C548.9 36.754 615.4 84.454 674.2 99.354C765.2 122.454 804.7 41.654 901.3 11.154C1001.9 -20.746 1094.2 54.5539 1201.4 64.5539C1235 67.6539 1259 63.1541 1279.7 55.9541C1323.7 40.7541 1352.3 5.35401 1427.7 4.15401C1537.4 2.35401 1557.8 48.654 1647.9 54.654C1744.8 61.054 1849.8 -26.6459 1919.2 9.95406" transform="translate(1.5 630.348)" stroke="black" stroke-width="5" stroke-miterlimit="10"/>
<path d="M-9.53674e-08 62.4159C90.3 67.4159 268.1 68.7159 369.9 13.9159C406.7 -5.8841 445.4 -2.6842 484.7 11.8158C553.1 37.0158 620.2 87.2158 679.4 103.316C771.7 128.416 810.7 45.8159 907.7 12.9159C1007.6 -20.9841 1099.9 59.2159 1207.7 69.4159C1241.6 72.6159 1265.6 67.6157 1286.1 59.7157C1329.9 42.7157 1357.7 5.9157 1433.9 4.7157C1544.9 2.9157 1563.2 51.6158 1654.1 56.6158C1750 61.9158 1852.5 -25.0842 1919.1 12.8158" transform="translate(1.5 651.186)" stroke="black" stroke-width="5" stroke-miterlimit="10"/>
<path d="M-9.53674e-08 61.9788C90.2 65.2788 271.3 69.9788 373.3 14.2788C410.4 -6.1212 449.4 -2.62125 488.9 11.9788C557.2 37.2788 625 89.9789 684.7 107.179C778.2 134.179 816.9 49.7788 914.2 14.5788C1013.5 -21.4212 1105.6 63.7788 1214.2 74.2788C1248.4 77.5788 1272.4 72.1789 1292.7 63.3789C1336.3 44.5789 1363.3 6.37885 1440.3 5.07885C1552.6 3.17885 1568.8 54.2788 1660.4 58.2788C1755.4 62.4788 1855.4 -23.9211 1919 15.3789" transform="translate(1.5 671.922)" stroke="black" stroke-width="5" stroke-miterlimit="10"/>
<path d="M-9.53674e-08 61.4406C90.1 63.1406 274.6 71.4406 376.6 14.6406C413.9 -6.25943 453.3 -2.65943 493 12.1406C561.3 37.4406 629.6 92.7406 689.8 111.141C784.6 140.141 822.9 53.9408 920.6 16.3408C1019.2 -21.6592 1111.3 68.4406 1220.6 79.1406C1255.1 82.5406 1279.1 76.6407 1299.3 67.0407C1342.7 46.4407 1368.9 6.84072 1446.7 5.54072C1560.4 3.64072 1574.5 57.1406 1666.8 60.1406C1760.8 63.2406 1858.3 -22.4593 1919.1 18.2407" transform="translate(1.5 692.76)" stroke="black" stroke-width="5" stroke-miterlimit="10"/>
<path d="M-9.53674e-08 60.9782C90 60.9782 278 72.9782 380 14.9782C482 -43.0218 599 83.9782 695 114.978C791 145.978 829 57.9782 927 17.9782C1025 -22.0218 1117 72.9782 1227 83.9782C1337 94.9782 1338 7.97821 1453 5.97821C1568 3.97821 1580 59.9782 1673 61.9782C1766 63.9782 1861 -21.0218 1919 20.9782" transform="translate(1.5 713.523)" stroke="black" stroke-width="5" stroke-miterlimit="10"/>
</svg>
