<svg width="1923" height="885" viewBox="0 0 1923 885" fill="none" xmlns="http://www.w3.org/2000/svg">
<path d="M2.38419e-08 -2.44141e-05C201.5 164.3 323.3 147 509.5 48.9C602.5 -0.0999985 714.3 88.8 781.5 124.9C917.5 197.9 1056.5 48.9 1194.5 117.9C1332.5 186.9 1397.5 15.9 1531.5 7.9C1665.5 -0.0999999 1773.2 124.9 1919.5 124.9" transform="translate(2 2.59961)" stroke="black" stroke-width="5" stroke-miterlimit="10"/>
<path d="M2.38419e-08 -4.88281e-05C161.3 129.1 273.1 143.2 409.5 90.4C441.1 78.2 473.6 63 508.3 45.3C600.9 -1.7 710.2 87.5001 778.7 122.6C865.4 166.9 949.2 124.6 1036.1 104.2C1088.3 91.9 1140.2 88 1192.1 113.9C1240.5 138 1280.1 133 1317.4 116C1384.7 85.2 1439.4 15.2 1522.8 6.49995C1525.3 6.19995 1527.9 5.99998 1530.4 5.89998C1589.7 2.59998 1640.9 25.1 1695 49.7C1765.4 81.6 1834.6 118.5 1919.4 119.6" transform="translate(2 29.1992)" stroke="black" stroke-width="5" stroke-miterlimit="10"/>
<path d="M2.38419e-08 4.88281e-05C158.9 124.8 271.5 139.2 408.5 85.8999C440.3 73.4999 472.7 58.7 507 41.8C599 -3.30002 706 86.2999 775.8 120.4C864.4 163.5 945.8 119.8 1033.3 99.3999C1085.8 87.0999 1137.6 84.1999 1189.6 109.9C1237.7 133.7 1277.4 129.4 1315.2 112.9C1384.4 82.7999 1437.4 12.9 1521.6 4.50005C1524.1 4.20005 1526.7 3.99995 1529.3 3.89995C1589.9 0.699951 1639.3 24.4 1694.1 48.1C1764.9 78.6 1832.6 112.1 1919.2 114.3" transform="translate(2 55.7998)" stroke="black" stroke-width="5" stroke-miterlimit="10"/>
<path d="M2.38419e-08 2.44141e-05C156.6 120.5 269.9 135.3 407.6 81.2999C439.5 68.7999 471.8 54.2 505.9 38.2C597.4 -5.00003 702 85 773.2 118.1C863.6 159.9 942.7 114.9 1030.9 94.5C1083.7 82.2 1135.4 80.3 1187.5 105.9C1235.3 129.5 1275.1 125.7 1313.5 109.8C1384.6 80.5 1435.9 10.6 1521 2.40005C1523.5 2.20005 1526.1 1.99995 1528.7 1.79995C1590.7 -1.30005 1638.2 23.7 1693.7 46.4C1764.9 75.5 1831.2 105.6 1919.5 108.9" transform="translate(2 82.3994)" stroke="black" stroke-width="5" stroke-miterlimit="10"/>
<path d="M2.38419e-08 0.435934C154.2 116.636 268.2 131.836 406.6 77.236C438.7 64.536 470.9 50.3359 504.7 35.0359C595.8 -6.16409 697.9 84.036 770.4 116.236C862.7 156.836 939.4 110.436 1028.3 89.9359C1081.4 77.6359 1133 76.736 1185.2 102.236C1232.7 125.536 1272.5 122.336 1311.5 107.136C1384.5 78.5359 1434.1 8.83596 1520 0.835958C1522.6 0.635958 1525.1 0.435983 1527.7 0.235983C1591 -2.76402 1636.6 23.436 1693 45.236C1764.6 72.936 1829.4 99.5359 1919.6 104.036" transform="translate(2 108.563)" stroke="black" stroke-width="5" stroke-miterlimit="10"/>
<path d="M4.76837e-08 2.51236C151.8 114.412 266.6 129.912 405.6 74.7124C437.9 61.8124 470 48.0124 503.4 33.5124C594 -5.78764 693.7 84.8124 767.5 115.912C861.6 155.212 936.1 107.512 1025.5 87.0124C1078.9 74.7124 1130.4 74.8124 1182.7 100.212C1229.9 123.312 1269.8 120.712 1309.4 106.012C1384.3 78.1124 1432.2 8.51244 1518.9 0.712437C1521.5 0.512437 1524 0.312437 1526.6 0.212437C1591.2 -2.68756 1635 24.7123 1692.1 45.6123C1764 71.9123 1827.5 95.1124 1919.4 100.712" transform="translate(2.09961 133.087)" stroke="black" stroke-width="5" stroke-miterlimit="10"/>
<path d="M4.76837e-08 4.39092C149.4 111.991 264.9 127.891 404.6 72.091C437.1 59.091 469.1 45.5909 502.2 31.8909C592.3 -5.40908 689.6 85.491 764.7 115.591C860.7 153.691 932.8 104.591 1022.9 84.091C1076.7 71.791 1128 72.791 1180.4 98.191C1227.3 120.991 1267.3 118.991 1307.4 104.891C1384.3 77.7909 1430.4 8.19097 1517.9 0.690967C1520.5 0.490967 1523 0.290967 1525.6 0.190967C1591.6 -2.60903 1633.5 25.991 1691.4 45.991C1763.6 70.991 1825.7 90.691 1919.4 97.491" transform="translate(2.09961 157.809)" stroke="black" stroke-width="5" stroke-miterlimit="10"/>
<path d="M4.76837e-08 6.45991C147 109.76 263.3 125.96 403.6 69.5599C436.3 56.3599 468.2 43.2599 501 30.3599C590.7 -5.04007 685.6 86.2599 762 115.36C859.8 152.26 929.6 101.76 1020.3 81.2598C1074.4 68.9598 1125.6 70.9599 1178.1 96.1599C1224.7 118.76 1264.8 117.36 1305.4 103.86C1384.2 77.5599 1428.6 7.95986 1516.9 0.659857C1519.5 0.459857 1522.1 0.259857 1524.6 0.159857C1591.9 -2.44014 1631.9 27.2599 1690.6 46.3599C1763.2 69.9599 1823.9 86.2599 1919.3 94.1599" transform="translate(2.09961 182.439)" stroke="black" stroke-width="5" stroke-miterlimit="10"/>
<path d="M4.76837e-08 8.44243C144.7 107.442 261.7 124.042 402.6 67.0424C435.5 53.7424 467.2 40.9425 499.7 28.7425C588.9 -4.65752 681.3 87.0424 759.1 115.042C858.7 150.842 926.2 98.8425 1017.6 78.3425C1072 66.0425 1123.1 69.0424 1175.6 94.1424C1221.9 116.442 1262.1 115.742 1303.3 102.742C1384 77.2425 1426.7 7.74239 1515.9 0.642386C1518.5 0.442386 1521.1 0.242386 1523.7 0.142386C1592.3 -2.35761 1630.5 28.6425 1690 46.7425C1762.9 68.9425 1822.2 81.7425 1919.4 90.8425" transform="translate(2.09961 207.058)" stroke="black" stroke-width="5" stroke-miterlimit="10"/>
<path d="M4.76837e-08 10.627C142.3 105.327 260 122.327 401.7 64.627C434.8 51.127 466.4 38.7271 498.6 27.3271C587.4 -4.17295 677.3 87.927 756.4 114.927C857.8 149.527 923 96.127 1015 75.527C1069.7 63.227 1120.7 67.227 1173.3 92.227C1219.3 114.327 1259.7 114.227 1301.3 101.727C1384 77.027 1424.9 7.52698 1514.9 0.626981C1517.5 0.426981 1520.1 0.226981 1522.7 0.126981C1592.7 -2.27302 1628.9 29.927 1689.2 47.127C1762.4 68.027 1820.4 77.327 1919.4 87.527" transform="translate(2.09961 231.473)" stroke="black" stroke-width="5" stroke-miterlimit="10"/>
<path d="M4.76837e-08 12.4035C139.9 102.804 258.4 120.104 400.7 61.9035C434 48.2035 465.5 36.2036 497.4 25.6036C585.7 -3.89639 673.2 88.5036 753.6 114.504C856.8 147.904 919.7 93.1036 1012.4 72.5036C1067.4 60.3036 1118.3 65.2036 1171 90.1036C1216.7 111.904 1257.2 112.404 1299.3 100.504C1383.9 76.6036 1423.1 7.10363 1513.9 0.503629C1516.5 0.303629 1519.1 0.103604 1521.7 0.103604C1593 -2.0964 1627.4 31.3036 1688.4 47.5036C1762 67.1036 1818.5 72.9036 1919.3 84.2036" transform="translate(2.09961 256.296)" stroke="black" stroke-width="5" stroke-miterlimit="10"/>
<path d="M-4.76837e-08 14.5913C137.5 100.691 256.8 118.391 399.7 59.4912C433.2 45.6912 464.6 33.9913 496.1 24.0913C584 -3.40872 669 89.2912 750.8 114.291C855.9 146.391 916.5 90.2913 1009.7 69.6913C1065 57.4913 1115.8 63.2913 1168.6 88.0913C1214.1 109.691 1254.6 110.791 1297.3 99.4912C1383.9 76.3912 1421.3 6.99118 1512.9 0.491179C1515.5 0.291179 1518.1 0.191277 1520.7 0.0912766C1593.4 -2.00872 1625.8 32.6912 1687.7 47.9912C1761.6 66.2912 1816.8 68.4912 1919.3 80.9912" transform="translate(2.2002 280.708)" stroke="black" stroke-width="5" stroke-miterlimit="10"/>
<path d="M-4.76837e-08 16.4803C135.2 98.2803 255.1 116.28 398.7 56.8803C432.4 42.8803 463.7 31.5803 494.9 22.4803C582.4 -3.01969 665 89.9803 748 113.98C854.9 144.88 913.2 87.3802 1007.1 66.7802C1062.7 54.5802 1113.4 61.2803 1166.3 86.0803C1211.5 107.28 1252.1 109.18 1295.3 98.3803C1383.9 76.1803 1419.5 6.68031 1511.9 0.480307C1514.5 0.280307 1517.1 0.180282 1519.7 0.0802821C1593.7 -1.91972 1624.3 33.9803 1686.9 48.3803C1761.1 65.2803 1814.9 64.0803 1919.2 77.6803" transform="translate(2.2002 305.419)" stroke="black" stroke-width="5" stroke-miterlimit="10"/>
<path d="M-4.76837e-08 18.5633C132.8 96.0633 253.5 114.463 397.7 54.3633C431.6 40.2633 462.8 29.2633 493.7 20.9633C580.7 -2.53671 660.9 90.7632 745.2 113.763C854 143.363 909.9 84.5633 1004.4 63.9633C1060.3 51.7633 1110.9 59.4632 1163.9 84.1632C1208.8 105.163 1249.5 107.663 1293.2 97.3633C1383.7 76.0633 1417.6 6.46329 1510.9 0.46329C1513.5 0.26329 1516.2 0.163266 1518.8 0.0632656C1594.1 -1.73673 1622.8 35.3632 1686.3 48.7632C1760.8 64.4632 1813.3 59.6633 1919.3 74.3633" transform="translate(2.2002 329.937)" stroke="black" stroke-width="5" stroke-miterlimit="10"/>
<path d="M-4.76837e-08 20.5547C130.4 93.7547 251.8 112.555 396.7 51.8547C430.8 37.5547 461.9 27.0547 492.5 19.4547C579.1 -2.0453 656.8 91.5547 742.4 113.455C853 141.855 906.6 81.6547 1001.8 60.9547C1058 48.7547 1108.5 57.4547 1161.6 82.0547C1206.2 102.755 1247 106.055 1291.3 96.2547C1383.8 75.7547 1415.9 6.1547 1510 0.454699C1512.6 0.254699 1515.3 0.154675 1517.9 0.0546746C1594.6 -1.64533 1621.3 36.7547 1685.6 49.1547C1760.4 63.5547 1811.5 55.2547 1919.4 71.0547" transform="translate(2.2002 354.545)" stroke="black" stroke-width="5" stroke-miterlimit="10"/>
<path d="M-4.76837e-08 22.6414C128 91.5414 250.2 110.642 395.7 49.3415C430 34.8415 461 24.7415 491.2 17.8415C577.4 -1.65849 652.6 92.1414 739.6 113.141C852.1 140.341 903.3 78.7415 999.1 58.0415C1055.6 45.8415 1106 55.5415 1159.1 80.0415C1203.4 100.541 1244.4 104.441 1289.1 95.1414C1383.6 75.5414 1413.9 5.94151 1508.8 0.341514C1511.5 0.141514 1514.1 0.0414651 1516.7 0.0414651C1594.7 -1.45853 1619.6 38.1415 1684.6 49.5415C1759.7 62.6415 1809.5 50.7415 1919.1 67.7415" transform="translate(2.2002 379.059)" stroke="black" stroke-width="5" stroke-miterlimit="10"/>
<path d="M-4.76837e-08 24.6351C125.7 89.2351 248.6 108.735 394.8 46.835C429.3 32.235 460.2 22.435 490.1 16.335C575.9 -1.16499 648.6 92.935 736.9 112.935C851.2 138.835 900.1 75.935 996.6 55.235C1053.4 43.035 1103.7 53.635 1156.9 78.035C1200.9 98.235 1242 102.835 1287.3 94.035C1383.7 75.335 1412.3 5.63501 1508 0.335006C1510.7 0.135006 1513.3 0.0349571 1515.9 0.0349571C1595.3 -1.36504 1618.2 39.635 1684.1 49.935C1759.5 61.735 1807.9 46.335 1919.3 64.435" transform="translate(2.2002 403.665)" stroke="black" stroke-width="5" stroke-miterlimit="10"/>
<path d="M-2.38419e-08 26.5251C123.3 86.8251 246.9 106.625 393.8 44.225C428.5 29.425 459.3 20.025 488.9 14.725C574.3 -0.774959 644.5 93.6251 734.1 112.625C850.3 137.325 896.9 73.0251 993.9 52.3251C1051 40.1251 1101.2 51.7251 1154.5 76.0251C1198.3 96.0251 1239.4 101.225 1285.2 93.0251C1383.6 75.2251 1410.4 5.42514 1506.9 0.325139C1509.6 0.125139 1512.2 0.0250902 1514.8 0.0250902C1595.5 -1.17491 1616.5 41.0251 1683.2 50.3251C1758.9 60.9251 1805.9 41.9251 1919.1 61.1251" transform="translate(2.2998 428.475)" stroke="black" stroke-width="5" stroke-miterlimit="10"/>
<path d="M-2.38419e-08 28.617C120.9 84.617 245.3 104.817 392.8 41.717C427.7 26.817 458.4 17.817 487.6 13.117C572.6 -0.283017 640.3 94.3171 731.2 112.317C849.2 135.717 893.5 70.117 991.2 49.417C1048.6 37.217 1098.7 49.817 1152.1 74.017C1195.6 93.717 1236.8 99.717 1283.1 91.917C1383.5 75.017 1408.5 5.11706 1505.9 0.317056C1508.6 0.217056 1511.2 0.117007 1513.8 0.0170072C1595.8 -0.982993 1615 42.417 1682.5 50.717C1758.5 60.017 1804.2 37.5171 1919.1 57.8171" transform="translate(2.2998 452.982)" stroke="black" stroke-width="5" stroke-miterlimit="10"/>
<path d="M-2.38419e-08 30.7133C118.5 82.4133 243.7 103.013 391.8 39.3134C426.8 24.2134 457.5 15.6133 486.4 11.7133C571 0.413324 636.3 95.0133 728.5 112.213C848.4 134.113 890.3 67.4133 988.7 46.6133C1046.4 34.4134 1096.4 48.0133 1149.9 72.1133C1193.1 91.6133 1234.5 98.2134 1281.3 90.9134C1383.7 75.0134 1406.9 5.01342 1505.1 0.313423C1507.8 0.213423 1510.4 0.113374 1513.1 0.0133738C1596.5 -0.886626 1613.7 43.9134 1682 51.1133C1758.3 59.2134 1802.6 33.0134 1919.4 54.5134" transform="translate(2.2998 477.486)" stroke="black" stroke-width="5" stroke-miterlimit="10"/>
<path d="M-2.38419e-08 32.508C116.1 79.908 242 100.808 390.8 36.508C426 21.208 456.6 13.0079 485.2 9.90786C569.4 0.607857 632.2 95.4079 725.7 111.708C847.4 132.408 887 64.308 986 43.508C1044 31.308 1093.9 45.9079 1147.5 69.9079C1190.4 89.1079 1231.9 96.5079 1279.2 89.7079C1383.5 74.7079 1405 4.60791 1504 0.207906C1506.7 0.107906 1509.4 0.00795501 1512 0.00795501C1596.7 -0.692045 1612 45.308 1681.2 51.508C1757.8 58.408 1800.8 28.6079 1919.3 51.2079" transform="translate(2.2998 502.292)" stroke="black" stroke-width="5" stroke-miterlimit="10"/>
<path d="M-2.38419e-08 34.704C113.8 77.704 240.4 99.104 389.8 34.204C425.2 18.804 455.7 11.0039 483.9 8.50389C567.7 1.30389 628 96.304 722.8 111.604C846.4 131.004 883.6 61.6039 983.3 40.8039C1041.6 28.6039 1091.4 44.2039 1145.1 68.0039C1187.6 87.0039 1229.3 95.004 1277.1 88.704C1383.4 74.704 1403.1 4.40396 1502.9 0.20396C1505.6 0.10396 1508.3 0.00388674 1510.9 0.00388674C1597 -0.496113 1610.4 46.8039 1680.3 51.9039C1757.2 57.6039 1798.8 24.2039 1919.1 47.9039" transform="translate(2.2998 526.695)" stroke="black" stroke-width="5" stroke-miterlimit="10"/>
<path d="M-2.38419e-08 36.7025C111.4 75.4025 238.7 97.2025 388.9 31.6025C424.5 16.0025 454.9 8.60241 482.8 6.90241C566.2 1.80241 624 97.0024 720.1 111.302C845.5 129.502 880.4 58.7024 980.7 37.9024C1039.3 25.7024 1089 42.3025 1142.7 66.0025C1185 84.8025 1226.7 93.5025 1275.1 87.6025C1383.4 74.5025 1401.3 4.20246 1501.9 0.202455C1504.6 0.102455 1507.3 0.0025042 1509.9 0.0025042C1597.3 -0.397496 1608.8 48.2024 1679.5 52.3024C1756.7 56.8024 1797 19.7025 1919 44.6025" transform="translate(2.2998 551.297)" stroke="black" stroke-width="5" stroke-miterlimit="10"/>
<path d="M0 38.8C109 73.2 237.1 95.3 387.9 29.2C423.7 13.5 454 6.50005 481.6 5.50005C564.5 2.50005 619.9 97.9 717.4 111.1C844.7 128.1 877.3 55.9 978.2 35.1C1037.2 22.9 1086.7 40.5 1140.5 64.1C1182.5 82.6 1224.3 92 1273.2 86.6C1383.5 74.5 1399.6 4 1501 0.2C1503.7 0.1 1506.4 4.88281e-05 1509 4.88281e-05C1597.7 0.300049 1607.3 49.7 1678.9 52.8C1756.4 56.1 1795.3 15.4 1919.1 41.4" transform="translate(2.40039 575.8)" stroke="black" stroke-width="5" stroke-miterlimit="10"/>
<path d="M0 40.7999C106.6 70.9 235.5 93.4 386.9 26.6C422.9 10.7 453.1 3.50005 480.3 3.90005C562.8 5.10005 615.7 98.5999 714.5 110.8C843.6 126.5 873.9 53 975.4 32.1C1034.7 19.9 1084.1 38.5 1138 62C1179.7 80.3 1221.7 90.4 1271 85.5C1383.2 74.4 1397.6 3.69998 1499.9 0.199976C1502.6 0.0999756 1505.3 2.44141e-05 1508 2.44141e-05C1598.1 0.500024 1605.8 51.2 1678.1 53.2C1755.9 55.3 1793.5 11 1919.1 38.1" transform="translate(2.40039 600.399)" stroke="black" stroke-width="5" stroke-miterlimit="10"/>
<path d="M0 42.9415C104.3 68.7415 233.8 91.5414 385.9 24.2414C422.1 8.1414 452.1 2.04147 479.1 2.44147C561.2 3.74147 611.6 99.3414 711.7 110.641C842.6 125.141 870.6 50.2414 972.8 29.3414C1032.4 17.1414 1081.7 36.7414 1135.7 60.0414C1177.1 78.0414 1219.2 88.8415 1269.1 84.4415C1383.3 74.3415 1395.9 3.44142 1499 0.141421C1501.7 0.0414214 1504.4 -0.0585542 1507.1 0.0414458C1598.5 0.641446 1604.3 52.7414 1677.5 53.6414C1755.6 54.5414 1791.8 6.64137 1919.2 34.8414" transform="translate(2.40039 624.858)" stroke="black" stroke-width="5" stroke-miterlimit="10"/>
<path d="M0 44.9C101.9 66.4 232.2 89.6 384.9 21.6C421.3 5.39997 451.2 -0.299951 477.9 0.800049C559.6 4.30005 607.5 100 708.9 110.3C841.7 123.5 867.3 47.3 970.1 26.4C1030 14.2 1079.2 34.7 1133.3 58C1174.4 75.8 1216.6 87.3 1267 83.3C1383.2 74.2 1394 3.19998 1497.9 0.0999756C1500.7 -2.44156e-05 1503.4 0 1506 0C1598.8 0.3 1602.7 53.1 1676.6 54C1755 54.9 1789.9 2.1 1919 31.5" transform="translate(2.40039 649.5)" stroke="black" stroke-width="5" stroke-miterlimit="10"/>
<path d="M0 47.9675C99.5 65.1675 230.6 88.7676 383.9 20.1676C420.5 3.76758 450.3 -1.53247 476.6 0.367532C557.9 6.06753 603.4 101.868 706.1 111.168C840.7 123.168 864 45.5676 967.5 24.6676C1027.7 12.4676 1076.8 33.9676 1131 57.1676C1171.8 74.6676 1214.1 86.9675 1265.1 83.4675C1383.2 75.3675 1392.3 4.16756 1497 1.26756C1499.8 1.16756 1502.5 1.16758 1505.1 1.16758C1599.2 1.86758 1601.2 56.8675 1676 55.5675C1754.7 54.1675 1788.2 -1.13247 1919.1 29.3675" transform="translate(2.40039 673.132)" stroke="black" stroke-width="5" stroke-miterlimit="10"/>
<path d="M0 51.9145C97.1 64.8145 228.9 88.7146 383 19.5146C419.8 3.01458 449.5 -1.88544 475.5 0.614557C556.4 8.51456 599.4 104.415 703.4 112.715C839.9 123.415 860.8 44.5146 964.9 23.6146C1025.4 11.4146 1074.4 33.9146 1128.6 57.0146C1169.1 74.3146 1211.5 87.2145 1263 84.2145C1383.1 77.1145 1390.4 5.71456 1495.9 3.11456C1498.7 3.01456 1501.4 3.01458 1504 3.01458C1599.4 3.81458 1599.5 60.3145 1675.1 57.8145C1754.1 55.2145 1786.3 -3.68552 1918.9 27.9145" transform="translate(2.40039 695.785)" stroke="black" stroke-width="5" stroke-miterlimit="10"/>
<path d="M0 55.7705C94.8 64.3705 227.3 88.6705 382 18.8705C419 2.17049 448.6 -2.22953 474.3 0.970469C554.7 11.0705 595.3 107.07 700.6 114.37C838.9 123.87 857.6 43.5704 962.3 22.5704C1023.1 10.3704 1072 33.8705 1126.3 56.8705C1166.5 73.8705 1209.1 87.5705 1261 84.9705C1383.1 78.8705 1388.6 7.27049 1495 4.87049C1497.8 4.77049 1500.5 4.77052 1503.1 4.77052C1599.9 5.77052 1598.1 63.5705 1674.4 59.9705C1753.7 56.2705 1784.5 -6.32951 1919 26.3705" transform="translate(2.40039 718.529)" stroke="black" stroke-width="5" stroke-miterlimit="10"/>
<path d="M-9.53674e-08 59.79C92.4 64.09 225.6 88.69 381 18.29C418.2 1.39001 447.7 -2.51001 473.1 1.38999C553.1 13.69 591.2 109.79 697.8 116.09C838 124.29 854.3 42.69 959.6 21.69C1020.7 9.49004 1069.4 33.99 1123.9 56.79C1163.8 73.59 1206.5 88.09 1259 85.89C1383 80.99 1386.8 9.08999 1494 6.88999C1496.8 6.78999 1499.5 6.78999 1502.2 6.88999C1600.3 7.98999 1596.6 67.39 1673.8 62.49C1753.5 57.79 1782.9 -8.70997 1919.1 25.19" transform="translate(2.5 741.109)" stroke="black" stroke-width="5" stroke-miterlimit="10"/>
<path d="M-9.53674e-08 63.7878C90 63.7878 224 88.7878 380 17.7878C536 -53.2122 553 110.788 695 117.788C837 124.788 851 41.7878 957 20.7878C1063 -0.212175 1131 90.7878 1257 86.7878C1383 82.7878 1385 10.7878 1493 8.78782C1601 6.78782 1593 70.7878 1673 64.7878C1753 58.7878 1781 -11.2122 1919 23.7878" transform="translate(2.5 763.712)" stroke="black" stroke-width="5" stroke-miterlimit="10"/>
</svg>
