<svg width="1923" height="980" viewBox="0 0 1923 980" fill="none" xmlns="http://www.w3.org/2000/svg">
<path d="M2.38419e-08 61.6C201.5 225.9 384.5 127.7 497 171.1C609.5 214.5 617.5 49.1 775 59.3C932.5 69.5 1017.5 0 1189 0C1334.2 0 1412.9 93.2 1537 127.7C1635.5 155.1 1773.2 125.6 1919.5 125.6" transform="translate(2 3)" stroke="black" stroke-width="5" stroke-miterlimit="10"/>
<path d="M2.38419e-08 59.112C197.9 218.112 378.1 128.212 492.9 170.612C598.4 209.612 615 70.712 744.7 59.312C753.6 58.512 763.1 58.412 773.1 59.012C845 63.512 902.2 54.312 959.3 40.612C1029.1 23.712 1094.4 1.11203 1187.4 0.0120318C1211.4 -0.187968 1233.9 2.11203 1255.2 6.41203C1345.6 24.412 1406.8 78.012 1486 110.612C1502.3 117.212 1518.9 123.012 1536.3 127.312C1577.7 137.712 1624.9 137.012 1678.3 134.612C1751.4 131.312 1835.3 123.912 1919.4 123.912" transform="translate(2 29.3877)" stroke="black" stroke-width="5" stroke-miterlimit="10"/>
<path d="M2.38419e-08 56.4701C194.3 210.17 371.7 128.67 488.7 170.07C594.3 207.47 613.8 71.9701 742.6 59.0701C751.6 58.1701 761.1 57.9701 771.1 58.5701C842.9 62.8701 900.3 56.5701 957.8 43.4701C1029.9 27.0701 1092.8 2.27009 1185.9 0.0700945C1209.8 -0.429906 1232.3 1.77009 1254 5.87009C1347.3 23.4701 1405.3 79.5701 1485.2 111.17C1501.8 117.77 1518.5 123.07 1535.8 126.97C1577.2 136.17 1623.5 133.47 1677.4 130.77C1750.4 127.27 1836.3 122.37 1919.5 122.37" transform="translate(2 55.8301)" stroke="black" stroke-width="5" stroke-miterlimit="10"/>
<path d="M2.38419e-08 53.9685C190.7 202.369 365.3 129.269 484.6 169.569C590.3 205.269 612.7 73.2685 740.6 58.9685C749.6 57.9685 759.2 57.6685 769.2 58.1685C840.8 62.2685 898.6 58.8685 956.3 46.3685C1030.7 30.2685 1091.3 3.16852 1184.3 0.168525C1208.1 -0.631475 1230.7 1.46852 1252.8 5.36852C1349.1 22.5685 1403.9 81.0685 1484.4 111.869C1501.3 118.369 1518 123.369 1535.3 126.669C1576.8 134.769 1622.1 129.869 1676.4 126.869C1749.4 123.069 1837.2 120.669 1919.5 120.669" transform="translate(2 82.2314)" stroke="black" stroke-width="5" stroke-miterlimit="10"/>
<path d="M2.38419e-08 51.5726C187.1 194.673 359 129.873 480.5 169.173C586.3 203.373 611.7 74.6726 738.6 58.8726C747.7 57.7726 757.3 57.3726 767.4 57.8726C838.9 61.7726 897 61.2726 954.9 49.3726C1031.5 33.6726 1089.8 4.2726 1182.9 0.272599C1206.6 -0.727401 1229.2 1.0726 1251.7 4.8726C1351 21.5726 1402.6 82.5726 1483.6 112.573C1500.8 118.873 1517.6 123.573 1534.8 126.473C1576.3 133.373 1620.7 126.273 1675.5 123.073C1748.4 118.773 1838.1 119.173 1919.6 119.173" transform="translate(2 108.527)" stroke="black" stroke-width="5" stroke-miterlimit="10"/>
<path d="M2.38419e-08 49.2344C183.5 187.034 352.5 130.634 476.4 168.834C582.2 201.434 610.6 76.0344 736.6 58.8344C745.8 57.6344 755.4 57.1344 765.5 57.6344C836.9 61.3344 895.3 63.7344 953.5 52.4344C1032.4 37.0344 1088.3 5.43441 1181.4 0.43441C1204.9 -0.865589 1227.7 0.834411 1250.5 4.43441C1352.7 20.6344 1401.1 84.0344 1482.8 113.234C1500.2 119.434 1517.2 123.734 1534.3 126.134C1575.9 131.934 1619.2 122.734 1674.5 119.234C1747.4 114.634 1839 117.534 1919.6 117.534" transform="translate(2 134.766)" stroke="black" stroke-width="5" stroke-miterlimit="10"/>
<path d="M2.38419e-08 46.881C179.9 179.381 346.1 131.381 472.2 168.481C578.1 199.581 609.4 77.381 734.5 58.881C743.7 57.481 753.4 56.981 763.5 57.381C834.8 60.981 893.5 66.181 951.9 55.481C1033.2 40.481 1086.7 6.581 1179.8 0.580997C1203.2 -0.919003 1226 0.580991 1249.2 3.98099C1354.4 19.681 1399.6 85.581 1481.9 113.981C1499.6 120.081 1516.6 124.081 1533.7 125.981C1575.4 130.581 1617.7 119.281 1673.5 115.481C1746.3 110.581 1839.8 115.981 1919.6 115.981" transform="translate(2 161.019)" stroke="black" stroke-width="5" stroke-miterlimit="10"/>
<path d="M2.38419e-08 44.6131C176.3 171.713 339.6 132.313 468.1 168.213C574 197.813 608.4 78.8131 732.5 58.9131C741.8 57.4131 751.4 56.8131 761.6 57.2131C832.7 60.6131 891.8 68.8131 950.4 58.6131C1034 44.0131 1085.1 7.91311 1178.2 0.813112C1201.5 -0.986888 1224.4 0.313115 1247.9 3.61312C1356.1 18.7131 1398.1 87.1131 1481 114.813C1499 120.813 1516.1 124.413 1533.1 125.813C1574.8 129.213 1616.2 115.813 1672.5 111.813C1745.2 106.613 1840.7 114.613 1919.5 114.613" transform="translate(2 187.187)" stroke="black" stroke-width="5" stroke-miterlimit="10"/>
<path d="M2.38419e-08 42.1083C172.7 164.008 333.1 133.008 464 167.808C570 195.908 607.3 80.1082 730.5 58.9082C739.8 57.3082 749.5 56.6083 759.7 57.0083C830.7 60.2083 890.2 71.4083 949 61.7083C1034.9 47.6083 1083.7 9.10826 1176.8 1.00826C1200 -0.991745 1222.9 0.108253 1246.9 3.20825C1358.1 17.8083 1396.9 88.7083 1480.3 115.508C1498.6 121.408 1515.8 124.608 1532.7 125.608C1574.5 127.808 1614.8 112.308 1671.6 108.008C1744.3 102.508 1841.7 113.008 1919.6 113.008" transform="translate(2 213.492)" stroke="black" stroke-width="5" stroke-miterlimit="10"/>
<path d="M2.38419e-08 39.8963C169.1 156.496 326.7 133.996 459.8 167.596C565.8 194.296 606.1 81.4963 728.5 58.9963C737.9 57.2963 747.6 56.4963 757.8 56.8963C828.7 59.8963 888.5 74.0963 947.5 64.8963C1035.7 51.1963 1082.1 10.3963 1175.2 1.29631C1198.2 -1.00369 1221.3 -0.103687 1245.6 2.89631C1359.8 16.8963 1395.4 90.2963 1479.4 116.396C1498 122.196 1515.2 125.096 1532.1 125.496C1574 126.596 1613.3 108.896 1670.6 104.396C1743.2 98.5963 1842.5 111.696 1919.6 111.696" transform="translate(2 239.604)" stroke="black" stroke-width="5" stroke-miterlimit="10"/>
<path d="M2.38419e-08 37.6691C165.5 148.969 320.2 135.069 455.7 167.369C561.7 192.669 605 82.9691 726.5 59.1691C736 57.2691 745.7 56.3691 755.9 56.7691C826.6 59.5691 886.8 76.7691 946 68.0691C1036.5 54.8691 1080.5 11.7691 1173.7 1.56911C1196.6 -0.930888 1219.8 -0.330888 1244.4 2.56911C1361.6 16.0691 1394 91.8691 1478.6 117.269C1497.5 122.969 1514.8 126.069 1531.6 125.369C1573.6 123.769 1611.9 105.569 1669.7 100.669C1742.3 94.5691 1843.5 110.169 1919.7 110.169" transform="translate(2 265.73)" stroke="black" stroke-width="5" stroke-miterlimit="10"/>
<path d="M2.38419e-08 35.4762C161.9 141.476 313.7 136.076 451.6 167.176C557.6 191.076 604 84.3762 724.5 59.2762C734 57.2762 743.8 56.2762 754 56.6762C824.6 59.2762 885.1 79.4762 944.6 71.2762C1037.5 58.4762 1079.1 13.0762 1172.2 1.87624C1195 -0.923755 1218.2 -0.423762 1243.2 2.27624C1363.4 15.1762 1392.6 93.4762 1477.8 118.076C1497 123.576 1514.4 125.776 1531.1 125.276C1573.2 123.976 1610.5 102.176 1668.7 97.0762C1741.2 90.6762 1844.4 108.776 1919.7 108.776" transform="translate(2 291.824)" stroke="black" stroke-width="5" stroke-miterlimit="10"/>
<path d="M2.38419e-08 33.2C158.3 133.9 307.1 137.1 447.4 166.9C553.4 189.4 602.8 85.7 722.4 59.4C732 57.3 741.8 56.2 752.1 56.6C822.6 59 883.4 82.2 943.1 74.5C1038.3 62.2 1077.5 14.5 1170.7 2.20001C1193.3 -0.799988 1216.7 -0.6 1242 2C1365.2 14.3 1391.2 95.2 1476.9 119C1496.4 124.4 1513.8 126.2 1530.5 125.2C1572.7 122.7 1608.9 98.8 1667.7 93.4C1740.1 86.7 1845.2 107.4 1919.7 107.4" transform="translate(2 318)" stroke="black" stroke-width="5" stroke-miterlimit="10"/>
<path d="M2.38419e-08 30.9108C154.7 126.311 300.6 138.111 443.3 166.711C549.3 187.911 601.7 87.0108 720.4 59.5108C730 57.3108 739.9 56.1108 750.2 56.5108C820.5 58.8108 881.8 84.9107 941.6 77.7107C1039.1 65.9107 1076 15.9108 1169.1 2.51076C1191.6 -0.689243 1215 -0.689261 1240.8 1.71074C1366.9 13.4107 1389.8 96.8108 1476.1 119.911C1495.9 125.211 1513.4 126.711 1530 125.211C1572.3 121.411 1607.5 95.6108 1666.7 89.9108C1739.1 83.0108 1846.1 106.111 1919.7 106.111" transform="translate(2 344.089)" stroke="black" stroke-width="5" stroke-miterlimit="10"/>
<path d="M2.38419e-08 28.8354C151.1 118.935 294.1 139.435 439.2 166.635C545.1 186.435 600.6 88.5354 718.4 59.8354C728.1 57.4354 738 56.2354 748.3 56.5354C818.5 58.6354 880.1 87.8354 940.2 81.0354C1040.1 69.7354 1074.5 17.3354 1167.7 2.93541C1190.1 -0.564587 1213.6 -0.764587 1239.7 1.43541C1368.8 12.6354 1388.5 98.3354 1475.4 120.735C1495.5 125.935 1513.1 127.035 1529.6 125.035C1572 120.035 1606.2 92.1354 1665.9 86.1354C1738.2 78.9354 1847.1 104.635 1919.9 104.635" transform="translate(2 370.064)" stroke="black" stroke-width="5" stroke-miterlimit="10"/>
<path d="M2.38419e-08 26.7351C147.5 111.535 287.6 140.735 435.1 166.535C541 185.035 599.6 89.9351 716.4 60.0351C726.2 57.5351 736.1 56.2351 746.4 56.5351C816.5 58.4351 878.4 90.6351 938.7 84.3351C1040.9 73.6351 1072.9 18.8351 1166.1 3.33512C1188.4 -0.364879 1212 -0.864885 1238.4 1.23511C1370.5 11.7351 1387 100.035 1474.4 121.735C1494.8 126.835 1512.5 127.535 1528.9 125.135C1571.4 118.935 1604.5 88.9351 1664.8 82.7351C1737.1 75.2351 1847.9 103.435 1919.8 103.435" transform="translate(2 396.064)" stroke="black" stroke-width="5" stroke-miterlimit="10"/>
<path d="M2.38419e-08 24.5138C144 104.014 281 141.914 430.9 166.314C536.8 183.614 598.4 91.2138 714.3 60.2138C724.1 57.6138 734.1 56.2138 744.4 56.5138C814.3 58.2138 876.6 93.5138 937.1 87.6138C1041.6 77.4138 1071.3 20.3138 1164.5 3.71378C1186.6 -0.18622 1210.3 -0.886202 1237.1 1.0138C1372.2 10.9138 1385.5 101.714 1473.5 122.714C1494.2 127.614 1511.9 128.014 1528.2 125.114C1570.7 117.614 1602.9 85.7138 1663.6 79.1138C1735.8 71.3138 1848.6 102.014 1919.6 102.014" transform="translate(2 422.187)" stroke="black" stroke-width="5" stroke-miterlimit="10"/>
<path d="M2.38419e-08 22.5789C140.4 96.7789 274.5 143.379 426.8 166.379C532.7 182.379 597.3 92.7789 712.3 60.5789C722.2 57.7789 732.2 56.3789 742.5 56.5789C812.3 58.0789 875 96.4789 935.7 90.9789C1042.6 81.3789 1069.8 21.8789 1163 4.17894C1185 -0.0210595 1208.8 -0.921078 1235.9 0.878922C1374 10.1789 1384.1 103.479 1472.7 123.679C1493.7 128.479 1511.5 128.479 1527.7 125.179C1570.3 116.479 1601.5 82.4789 1662.7 75.6789C1734.9 67.5789 1849.5 100.879 1919.7 100.879" transform="translate(2 448.021)" stroke="black" stroke-width="5" stroke-miterlimit="10"/>
<path d="M2.38419e-08 20.44C136.8 89.34 267.9 144.74 422.7 166.34C528.5 181.14 596.2 94.24 710.3 60.84C720.2 57.94 730.3 56.44 740.6 56.64C810.3 57.94 873.3 99.44 934.2 94.34C1043.4 85.34 1068.3 23.44 1161.4 4.64003C1183.3 0.240032 1207.2 -0.959961 1234.7 0.740039C1375.8 9.44004 1382.7 105.24 1471.9 124.74C1493.2 129.44 1511.1 129.04 1527.2 125.24C1569.9 115.24 1600.1 79.34 1661.7 72.14C1733.8 63.84 1850.4 99.54 1919.7 99.54" transform="translate(2 473.96)" stroke="black" stroke-width="5" stroke-miterlimit="10"/>
<path d="M2.38419e-08 18.2768C133.1 81.8768 261.4 146.077 418.5 166.177C524.3 179.677 595 95.5768 708.2 61.0768C718.2 58.0768 728.3 56.4768 738.6 56.6768C808.2 57.8768 871.5 102.277 932.6 97.6768C1044.2 89.2768 1066.6 24.9768 1159.8 5.07681C1181.5 0.476815 1205.5 -0.923185 1233.4 0.576815C1377.5 8.67682 1381.2 106.877 1470.9 125.777C1492.5 130.277 1510.4 129.577 1526.5 125.377C1569.3 114.177 1598.4 76.1768 1660.6 68.7768C1732.6 60.1768 1851.1 98.4768 1919.6 98.4768" transform="translate(2 500.023)" stroke="black" stroke-width="5" stroke-miterlimit="10"/>
<path d="M2.38419e-08 16.2863C129.5 74.5863 254.8 147.586 414.4 166.186C520.2 178.486 593.9 96.9862 706.2 61.3862C716.2 58.1862 726.4 56.5863 736.7 56.7863C806.1 57.7863 869.9 105.286 931.2 101.086C1045.1 93.2863 1065.2 26.5863 1158.3 5.58625C1179.9 0.686254 1204 -0.913722 1232.2 0.486278C1379.3 7.88628 1379.8 108.686 1470.1 126.786C1492 131.186 1510 130.086 1526 125.386C1568.9 112.886 1597 72.8862 1659.7 65.1862C1731.7 56.2862 1852.1 97.0863 1919.7 97.0863" transform="translate(2 525.914)" stroke="black" stroke-width="5" stroke-miterlimit="10"/>
<path d="M2.38419e-08 14.2961C126 67.2961 248.3 149.196 410.3 166.196C516 177.296 592.7 98.3961 704.2 61.7961C714.3 58.4961 724.5 56.7961 734.9 56.8961C804.2 57.6961 868.3 108.296 929.8 104.496C1046.1 97.3961 1063.7 28.1961 1156.9 6.09612C1178.4 0.996118 1202.5 -0.903894 1231.1 0.396106C1381.2 7.19611 1378.5 110.396 1469.4 127.896C1491.6 132.196 1509.7 130.696 1525.6 125.596C1568.6 111.796 1595.7 69.8961 1658.8 61.8961C1730.7 52.6961 1853.1 96.0961 1919.8 96.0961" transform="translate(2 551.804)" stroke="black" stroke-width="5" stroke-miterlimit="10"/>
<path d="M2.38419e-08 12.2193C122.4 59.9193 241.7 150.619 406.1 166.119C511.8 176.119 591.5 99.7193 702.1 62.0193C712.2 58.5193 722.4 56.8193 732.9 56.9193C802.1 57.5193 866.5 111.219 928.2 107.919C1046.8 101.419 1062.1 29.8193 1155.2 6.61934C1176.6 1.31934 1200.8 -0.880709 1229.8 0.319291C1382.9 6.41929 1377 112.219 1468.4 129.019C1490.9 133.119 1509 131.319 1524.9 125.719C1567.9 110.619 1594.1 66.7193 1657.7 58.4193C1729.6 49.0193 1853.8 94.8193 1919.7 94.8193" transform="translate(2 577.78)" stroke="black" stroke-width="5" stroke-miterlimit="10"/>
<path d="M2.38419e-08 10.0273C118.8 52.4273 235.2 152.127 402 166.027C507.7 174.827 590.4 101.027 700.2 62.3273C710.4 58.7273 720.6 56.9273 731.1 57.0273C800.1 57.4273 864.9 114.227 926.8 111.327C1047.7 105.527 1060.6 31.5273 1153.8 7.12727C1175 1.52727 1199.4 -0.772752 1228.7 0.227248C1384.8 5.72725 1375.7 113.927 1467.7 130.027C1490.5 134.027 1508.7 131.827 1524.5 125.827C1567.6 109.427 1592.7 63.6273 1656.9 55.0273C1728.7 45.3273 1854.9 93.6273 1919.9 93.6273" transform="translate(2 603.873)" stroke="black" stroke-width="5" stroke-miterlimit="10"/>
<path d="M2.38419e-08 8.17423C115.2 45.2742 228.7 153.874 397.9 166.174C503.5 173.874 589.2 102.574 698.2 62.7742C708.5 59.0742 718.7 57.1742 729.2 57.1742C798.1 57.3742 863.3 117.374 925.4 114.774C1048.7 109.574 1059.2 33.1742 1152.3 7.67423C1173.4 1.87423 1197.8 -0.725773 1227.5 0.174227C1386.6 4.97423 1374.3 115.674 1466.9 131.174C1490 135.074 1508.2 132.474 1524 125.974C1567.1 108.274 1591.3 60.5742 1655.9 51.5742C1727.7 41.6742 1855.8 92.4742 1919.9 92.4742" transform="translate(2 629.525)" stroke="black" stroke-width="5" stroke-miterlimit="10"/>
<path d="M2.38419e-08 6.13047C111.6 37.9305 222.1 155.53 393.8 166.13C499.4 172.63 588.1 103.93 696.2 63.1305C706.5 59.2305 716.8 57.3305 727.3 57.3305C796.1 57.3305 861.6 120.431 923.9 118.231C1049.5 113.731 1057.6 34.8305 1150.8 8.23051C1171.8 2.23051 1196.3 -0.669526 1226.3 0.130474C1388.4 4.23047 1373 117.53 1466.1 132.33C1489.5 136.03 1507.8 133.031 1523.5 126.231C1566.7 107.231 1589.9 57.5305 1655 48.2305C1726.7 38.0305 1856.7 91.3305 1920 91.3305" transform="translate(2 655.47)" stroke="black" stroke-width="5" stroke-miterlimit="10"/>
<path d="M2.38419e-08 4.19489C108 30.6949 215.6 157.295 389.6 166.195C495.2 171.595 586.8 105.395 694.1 63.4949C704.5 59.4949 714.8 57.4949 725.3 57.4949C793.9 57.3949 859.8 123.495 922.3 121.695C1050.2 117.895 1056 36.5949 1149.1 8.79487C1170 2.59487 1194.5 -0.605084 1224.9 0.094916C1390 3.59492 1371.4 119.295 1465 133.395C1488.7 136.995 1507.1 133.595 1522.7 126.295C1565.9 105.995 1588.2 54.3949 1653.7 44.7949C1725.4 34.2949 1857.3 90.1949 1919.7 90.1949" transform="translate(2 681.305)" stroke="black" stroke-width="5" stroke-miterlimit="10"/>
<path d="M2.38419e-08 2.14834C104.4 23.3483 209.1 159.048 385.5 166.148C491.1 170.448 585.7 106.648 692.1 63.8483C702.5 59.6483 712.9 57.6483 723.4 57.6483C791.9 57.3483 858.1 126.548 920.9 125.148C1051.2 122.148 1054.5 38.2483 1147.7 9.34829C1168.4 2.94829 1193.1 -0.451696 1223.9 0.0483044C1391.9 2.8483 1370.2 121.048 1464.4 134.548C1488.4 137.948 1506.8 134.248 1522.4 126.548C1565.7 104.948 1587 51.4483 1653 41.4483C1724.6 30.8483 1858.4 89.0483 1920 89.0483" transform="translate(2 707.252)" stroke="black" stroke-width="5" stroke-miterlimit="10"/>
<path d="M2.38419e-08 0.344887C100.8 16.2449 202.5 160.945 381.4 166.345C487 169.545 584.5 108.245 690.1 64.3449C700.6 60.0449 711 57.9449 721.5 57.8449C789.9 57.3449 856.5 129.745 919.4 128.645C1052 126.345 1053 40.0449 1146.1 9.94492C1166.7 3.24492 1191.5 -0.455101 1222.6 0.0448992C1393.6 1.8449 1368.7 122.845 1463.5 135.645C1487.8 138.945 1506.3 134.845 1521.8 126.645C1565.1 103.745 1585.4 48.3449 1652 38.0449C1723.6 27.1449 1859.3 87.8449 1920 87.8449" transform="translate(2 732.955)" stroke="black" stroke-width="5" stroke-miterlimit="10"/>
<path d="M2.38419e-08 -2.44141e-05C97.2 10.6 196 164.4 377.3 168.1C482.9 170.2 583.3 111.3 688.1 66.5C698.6 62 709.1 59.9 719.7 59.8C788 59.1 854.9 134.6 918 133.9C1052.9 132.4 1051.6 43.7 1144.7 12.3C1165.2 5.50002 1190 1.49999 1221.5 1.69999C1395.5 2.89999 1367.4 126.2 1462.8 138.5C1487.4 141.6 1505.9 137.2 1521.4 128.5C1564.8 104.3 1584.1 46.9 1651.1 36.3C1722.6 25.1 1860.3 88.4 1920.1 88.4" transform="translate(2 757.1)" stroke="black" stroke-width="5" stroke-miterlimit="10"/>
<path d="M2.38419e-08 0C93.6 5.3 189.5 168.3 373.1 170.1C478.7 171.2 582 114.6 686 68.8C696.5 64.1 707.1 62 717.7 61.9C785.8 61 853.1 139.8 916.5 139.3C1053.8 138.7 1050.1 47.3 1143.1 14.8C1163.5 7.69999 1188.4 3.49998 1220.2 3.59998C1397.2 4.19998 1365.9 130 1461.8 141.6C1486.7 144.6 1505.2 139.7 1520.7 130.7C1564 105.1 1582.5 45.9 1650 35C1721.5 23.6 1861 89.3 1920 89.3" transform="translate(2 781)" stroke="black" stroke-width="5" stroke-miterlimit="10"/>
<path d="M2.38419e-08 2.44141e-05C90 2.44141e-05 183 172.1 369 172.1C474.6 172.1 580.8 118 684 71.1C762.6 35.4 841.5 144.6 915 144.6C1085 144.6 1039 5.50002 1219 5.50002C1399 5.50002 1364.5 133.8 1461 144.6C1557.5 155.5 1557 48.6 1649 33.5C1720.4 21.8 1861.9 90.1 1920 90.1" transform="translate(2 804.9)" stroke="black" stroke-width="5" stroke-miterlimit="10"/>
</svg>
