<svg width="1922" height="807" viewBox="0 0 1922 807" fill="none" xmlns="http://www.w3.org/2000/svg">
<path d="M-9.53674e-08 89C95 101 110 202 200 202C290 202 330 142 397 101C464 60 632 132 728 81C824 30 1022 184 1103 164C1184 144 1302 33 1408 33C1514 33 1560 154 1645 89C1730 24 1825 51 1920 0" transform="translate(0.5 2.5)" stroke="black" stroke-width="5" stroke-miterlimit="10"/>
<path d="M-9.53674e-08 86.5C94.8 98.1 114.9 199 205.8 198.8C296.7 198.6 337.1 135.7 404.5 96.8999C471.9 58.0999 637 131.8 734.6 81.8999C832.3 31.9999 1024 179 1106.4 160.1C1188.8 141.2 1304.4 34 1410.7 33.9C1517 33.8 1562 147.9 1647.2 84.5999C1732.4 21.2999 1826.2 48 1920 4.88281e-05" transform="translate(0.5 24.8008)" stroke="black" stroke-width="5" stroke-miterlimit="10"/>
<path d="M-9.53674e-08 84.1C94.7 95.3 119.9 196.1 211.6 195.7C303.3 195.4 344.2 129.6 412 92.9999C479.8 56.3999 641.9 131.7 741.3 82.9C840.7 34.1 1026.1 174.2 1109.9 156.3C1193.7 138.4 1306.8 35 1413.4 34.9C1520 34.8 1563.9 141.9 1649.4 80.2999C1734.9 18.7 1827.3 44.9999 1919.9 -9.76563e-05" transform="translate(0.5 46.9004)" stroke="black" stroke-width="5" stroke-miterlimit="10"/>
<path d="M-9.53674e-08 81.6001C94.5 92.4001 124.8 193.1 217.4 192.6C310 192.1 351.3 123.4 419.5 89C487.8 54.6 646.9 131.6 747.9 83.9001C848.9 36.2001 1028.2 169.3 1113.3 152.5C1198.5 135.7 1309.2 36.1001 1416.1 35.9001C1523 35.7001 1565.9 135.9 1651.6 75.9001C1737.3 15.9001 1828.5 42 1919.9 -4.88281e-05" transform="translate(0.5 69.1992)" stroke="black" stroke-width="5" stroke-miterlimit="10"/>
<path d="M-9.53674e-08 79.2001C94.4 89.7001 129.7 190.1 223.2 189.5C316.7 188.9 358.4 117.2 427 84.9999C495.6 52.7999 651.8 131.5 754.5 84.9C857.2 38.3 1030.2 164.4 1116.7 148.7C1203.2 133 1311.6 37.2 1418.7 36.9C1525.8 36.6 1567.7 129.9 1653.6 71.6C1739.5 13.3 1829.5 38.9999 1919.7 -9.76563e-05" transform="translate(0.5 91.4004)" stroke="black" stroke-width="5" stroke-miterlimit="10"/>
<path d="M-9.53674e-08 76.7999C94.2 86.8999 134.7 187.2 229 186.4C323.3 185.6 365.5 111.1 434.5 81.0001C503.6 51.0001 656.8 131.4 761.1 85.7999C865.4 40.1999 1032.2 159.4 1120.1 144.8C1208 130.1 1313.9 38.1999 1421.4 37.7999C1528.9 37.4999 1569.7 123.8 1655.8 67.2001C1741.9 10.6001 1830.6 36.0001 1919.7 9.76563e-05" transform="translate(0.5 113.6)" stroke="black" stroke-width="5" stroke-miterlimit="10"/>
<path d="M-9.53674e-08 74.3001C94 84.0001 139.6 184.2 234.8 183.2C330 182.2 372.5 104.8 442.1 77C511.6 49.2 661.8 131.2 767.9 86.8001C874 42.4001 1034.4 154.6 1123.7 141C1213 127.4 1316.5 39.2001 1424.2 38.8001C1531.9 38.4001 1571.7 117.8 1658.1 62.9C1744.5 7.99995 1831.9 33 1919.7 4.88281e-05" transform="translate(0.5 135.801)" stroke="black" stroke-width="5" stroke-miterlimit="10"/>
<path d="M-9.53674e-08 71.7999C93.9 81.0999 144.5 181.2 240.6 180.1C336.7 179 379.6 98.6001 449.6 73.0001C519.5 47.4001 666.8 131.1 774.5 87.7999C882.2 44.4999 1036.4 149.7 1127.1 137.2C1217.8 124.7 1318.9 40.2999 1426.9 39.7999C1534.9 39.2999 1573.7 111.8 1660.3 58.5001C1746.9 5.2001 1833.1 30.0001 1919.7 9.76563e-05" transform="translate(0.5 158.1)" stroke="black" stroke-width="5" stroke-miterlimit="10"/>
<path d="M-9.53674e-08 69.5C93.7 78.4 149.5 178.4 246.5 177.1C343.5 175.8 386.8 92.6001 457.2 69.1001C527.6 45.6001 671.8 131.1 781.2 88.8C890.6 46.5 1038.6 144.8 1130.7 133.3C1222.8 121.8 1321.4 41.3 1429.8 40.8C1538.1 40.3 1575.9 105.8 1662.7 54.1999C1749.5 2.5999 1834.4 27 1919.9 -4.88281e-05" transform="translate(0.5 180.199)" stroke="black" stroke-width="5" stroke-miterlimit="10"/>
<path d="M-9.53674e-08 66.9C93.5 75.4 154.4 175.3 252.3 173.8C350.1 172.3 393.9 86.2001 464.7 65.0001C535.5 43.8001 676.8 130.8 787.9 89.7001C899 48.6001 1040.7 139.9 1134.2 129.4C1227.7 118.9 1323.9 42.2001 1432.5 41.7001C1541.1 41.1001 1577.8 99.6999 1664.9 49.7999C1751.9 -0.100098 1835.6 24.0001 1919.9 9.76563e-05" transform="translate(0.5 202.6)" stroke="black" stroke-width="5" stroke-miterlimit="10"/>
<path d="M-9.53674e-08 64.5C93.4 72.6 159.4 172.3 258.1 170.7C356.8 169.1 401 80.1 472.2 61C543.4 41.9 681.7 130.7 794.5 90.6999C907.3 50.6999 1042.7 135 1137.6 125.6C1232.5 116.2 1326.3 43.2999 1435.2 42.6999C1544.1 42.0999 1579.8 93.7 1667 45.5C1754.2 -2.70005 1836.7 21 1919.7 -4.88281e-05" transform="translate(0.5 224.699)" stroke="black" stroke-width="5" stroke-miterlimit="10"/>
<path d="M-9.53674e-08 62.1C93.2 69.8 164.3 169.4 263.9 167.6C363.5 165.8 408.1 73.8999 479.7 56.9999C551.3 40.0999 686.7 130.6 801.1 91.6C915.6 52.7 1044.7 130 1141 121.7C1237.3 113.4 1328.6 44.3 1437.8 43.6C1547 42.9 1581.6 87.6 1669.1 41.1C1756.6 -5.4 1837.7 17.9999 1919.6 -9.76563e-05" transform="translate(0.5 246.9)" stroke="black" stroke-width="5" stroke-miterlimit="10"/>
<path d="M-9.53674e-08 59.6C93.1 67 169.2 166.4 269.7 164.5C370.2 162.6 415.2 67.7 487.2 53C559.2 38.3 691.6 130.5 807.7 92.6001C923.8 54.8001 1046.7 125.1 1144.4 117.9C1242 110.7 1331 45.4 1440.5 44.6C1550 43.8 1583.6 81.5999 1671.3 36.6999C1759 -8.2001 1838.9 15 1919.6 -4.88281e-05" transform="translate(0.5 269.199)" stroke="black" stroke-width="5" stroke-miterlimit="10"/>
<path d="M-9.53674e-08 57.1001C92.9 64.1001 174.2 163.4 275.5 161.3C376.8 159.2 422.3 61.5 494.7 49C567.1 36.5 696.6 130.3 814.4 93.6001C932.2 56.9001 1048.9 120.3 1147.9 114.1C1246.9 107.9 1333.5 46.4001 1443.3 45.6001C1553.1 44.8001 1585.7 75.5999 1673.6 32.3999C1761.5 -10.8001 1840.2 12 1919.7 0" transform="translate(0.5 291.5)" stroke="black" stroke-width="5" stroke-miterlimit="10"/>
<path d="M-9.53674e-08 54.7001C92.7 61.3001 179.1 160.5 281.3 158.2C383.5 155.9 429.4 55.3001 502.2 45.0001C575.1 34.7001 701.5 130.2 821 94.5001C940.5 58.9001 1050.9 115.3 1151.3 110.2C1251.7 105.1 1335.8 47.4001 1445.9 46.5001C1556 45.6001 1587.5 69.5001 1675.7 28.0001C1763.9 -13.4999 1841.2 9.0001 1919.5 9.76563e-05" transform="translate(0.5 313.6)" stroke="black" stroke-width="5" stroke-miterlimit="10"/>
<path d="M-9.53674e-08 53.1324C92.6 59.3324 184 158.432 287.1 155.932C390.2 153.532 436.5 49.9323 509.7 41.8323C583 33.7323 706.5 130.932 827.6 96.3323C948.8 61.8323 1052.9 111.232 1154.7 107.232C1256.5 103.232 1338.2 49.3323 1448.6 48.3323C1559 47.3323 1589.5 64.3323 1677.9 24.5323C1766.3 -15.2677 1842.4 6.83231 1919.5 0.832306" transform="translate(0.5 334.969)" stroke="black" stroke-width="5" stroke-miterlimit="10"/>
<path d="M-9.53674e-08 53.2674C92.4 59.0674 189 157.968 292.9 155.468C396.8 152.868 443.5 46.4675 517.3 40.5675C591 34.6675 711.5 133.467 834.4 100.067C957.2 66.5675 1055.1 109.168 1158.3 106.168C1261.5 103.168 1340.8 53.0675 1451.4 52.0675C1562 51.0675 1591.5 61.0675 1680.1 22.8675C1768.7 -15.3325 1843.6 6.56745 1919.5 3.56745" transform="translate(0.5 354.633)" stroke="black" stroke-width="5" stroke-miterlimit="10"/>
<path d="M-9.53674e-08 53.5898C92.3 58.9898 193.9 157.79 298.7 155.09C403.5 152.39 450.6 42.9898 524.8 39.2898C598.9 35.5898 716.5 136.09 841 103.79C965.5 71.3898 1057.1 106.99 1161.7 105.09C1266.3 103.19 1343.2 56.8898 1454.1 55.7898C1565 54.6898 1593.5 57.7898 1682.3 21.2898C1771.1 -15.2102 1844.8 6.28976 1919.5 6.28976" transform="translate(0.5 374.109)" stroke="black" stroke-width="5" stroke-miterlimit="10"/>
<path d="M-9.53674e-08 54.0322C92.1 59.0322 198.8 157.732 304.5 154.832C410.2 151.932 457.7 39.6323 532.3 38.1323C606.9 36.6323 721.4 138.832 847.6 107.532C973.8 76.2322 1059.1 104.832 1165.1 104.032C1271.1 103.232 1345.5 60.7322 1456.7 59.5322C1567.9 58.3322 1595.3 54.5324 1684.4 19.7324C1773.5 -15.0676 1845.8 6.13228 1919.3 9.13228" transform="translate(0.5 393.367)" stroke="black" stroke-width="5" stroke-miterlimit="10"/>
<path d="M-9.53674e-08 54.372C91.9 58.972 203.8 157.572 310.3 154.472C416.8 151.372 464.8 36.2721 539.8 36.9721C614.8 37.6721 726.4 141.472 854.3 111.372C982.2 81.172 1061.3 102.872 1168.6 103.072C1276 103.272 1348 64.572 1459.5 63.372C1571 62.172 1597.4 51.3722 1686.7 18.2722C1776 -14.8278 1847.1 5.97211 1919.4 11.9721" transform="translate(0.5 412.828)" stroke="black" stroke-width="5" stroke-miterlimit="10"/>
<path d="M-9.53674e-08 54.8688C91.8 59.1688 208.7 157.569 316.1 154.369C423.5 151.169 471.9 33.0689 547.3 35.9689C622.7 38.8689 731.3 144.369 860.9 115.369C990.4 86.2688 1063.3 100.969 1172 102.269C1280.7 103.569 1350.4 68.6688 1462.2 67.3688C1574 66.0688 1599.4 48.3688 1688.9 16.8688C1778.4 -14.6312 1848.3 5.9689 1919.4 14.9689" transform="translate(0.5 432.131)" stroke="black" stroke-width="5" stroke-miterlimit="10"/>
<path d="M-9.53674e-08 55.4739C91.6 59.3739 213.6 157.674 321.9 154.274C430.2 150.874 479 29.8739 554.8 34.9739C630.6 40.0739 736.3 147.274 867.5 119.274C998.7 91.274 1065.3 98.9738 1175.4 101.374C1285.5 103.774 1352.7 72.674 1464.8 71.274C1576.9 69.874 1601.2 45.2739 1691 15.4739C1780.8 -14.3261 1849.3 5.97392 1919.3 17.9739" transform="translate(0.5 451.326)" stroke="black" stroke-width="5" stroke-miterlimit="10"/>
<path d="M-9.53674e-08 56.0578C91.5 59.5578 218.6 157.658 327.7 154.158C436.9 150.658 486.1 26.7577 562.3 33.9577C638.5 41.1577 741.2 150.158 874.1 123.258C1007 96.3577 1067.3 97.0578 1178.8 100.558C1290.3 104.058 1355.1 76.7577 1467.5 75.2577C1579.9 73.7577 1603.2 42.2579 1693.1 14.1579C1783.1 -13.9421 1850.4 5.95768 1919.1 20.9577" transform="translate(0.5 470.441)" stroke="black" stroke-width="5" stroke-miterlimit="10"/>
<path d="M-9.53674e-08 56.5559C91.3 59.6559 223.5 157.656 333.5 153.956C443.5 150.256 493.2 23.4558 569.8 32.9558C646.4 42.4558 746.2 152.956 880.8 127.256C1015.4 101.556 1069.4 95.2559 1182.3 99.7559C1295.2 104.256 1357.6 80.7559 1470.2 79.2559C1582.9 77.7559 1605.1 39.256 1695.3 12.856C1785.5 -13.544 1851.6 6.05592 1919.1 24.0559" transform="translate(0.5 489.744)" stroke="black" stroke-width="5" stroke-miterlimit="10"/>
<path d="M-9.53674e-08 57.3263C91.1 60.0263 228.5 157.926 339.4 154.026C450.3 150.126 500.4 20.5261 577.4 32.1261C654.5 43.7261 751.2 156.026 887.5 131.326C1023.8 106.626 1071.6 93.4262 1185.9 98.9262C1300.2 104.426 1360.1 84.8263 1473.1 83.3263C1586.1 81.8263 1607.3 36.3261 1697.7 11.6261C1788.1 -13.0739 1852.9 6.12614 1919.3 27.1261" transform="translate(0.5 508.773)" stroke="black" stroke-width="5" stroke-miterlimit="10"/>
<path d="M-9.53674e-08 58.0585C91 60.3585 233.4 158.159 345.2 154.159C457 150.159 507.5 17.5586 584.9 31.3586C662.4 45.1586 756.2 159.159 894.1 135.559C1032 111.959 1073.6 91.7586 1189.3 98.3586C1305 104.959 1362.5 89.1585 1475.8 87.5585C1589.1 85.9585 1609.3 33.5587 1699.9 10.4587C1790.5 -12.6413 1854.1 6.35857 1919.3 30.3586" transform="translate(0.5 527.842)" stroke="black" stroke-width="5" stroke-miterlimit="10"/>
<path d="M-9.53674e-08 58.7148C90.8 60.6148 238.3 158.315 351 154.115C463.7 149.915 514.5 14.4146 592.5 30.5146C670.4 46.5146 761.2 162.115 900.9 139.715C1040.6 117.315 1075.8 90.1148 1192.9 97.7148C1310 105.415 1365.1 93.3148 1478.6 91.7148C1592.1 90.1148 1611.3 30.7146 1702.2 9.31462C1793.1 -12.0854 1855.4 6.51457 1919.3 33.5146" transform="translate(0.5 546.885)" stroke="black" stroke-width="5" stroke-miterlimit="10"/>
<path d="M-9.53674e-08 59.5933C90.6 61.0933 243.3 158.694 356.8 154.294C470.3 149.894 521.6 11.5935 600 29.7935C678.4 47.9935 766.2 165.293 907.5 143.893C1048.8 122.493 1077.8 88.3933 1196.3 97.0933C1314.8 105.793 1367.4 97.5934 1481.3 95.8934C1595.1 94.1934 1613.3 27.8934 1704.4 8.19344C1795.5 -11.5066 1856.5 6.79353 1919.3 36.7935" transform="translate(0.5 565.807)" stroke="black" stroke-width="5" stroke-miterlimit="10"/>
<path d="M-9.53674e-08 60.4384C90.5 61.6384 248.2 158.938 362.6 154.438C477 149.938 528.7 8.63855 607.5 29.0385C686.2 49.4385 771.1 168.438 914.1 148.138C1057.1 127.838 1079.8 86.7385 1199.7 96.5385C1319.5 106.339 1369.8 101.938 1483.9 100.138C1598 98.3384 1615.1 25.1384 1706.4 7.1384C1797.7 -10.8616 1857.5 7.03855 1919.1 40.0385" transform="translate(0.5 584.762)" stroke="black" stroke-width="5" stroke-miterlimit="10"/>
<path d="M-9.53674e-08 61.356C90.3 62.156 253.1 159.356 368.4 154.756C483.7 150.056 535.8 5.85606 615 28.4561C694.2 51.0561 776.1 171.756 920.7 152.556C1065.3 133.356 1081.9 85.256 1203.1 96.156C1324.3 107.056 1372.2 106.456 1486.6 104.556C1601 102.656 1617.1 22.556 1708.6 6.15601C1800.1 -10.244 1858.7 7.45606 1919.1 43.4561" transform="translate(0.5 603.645)" stroke="black" stroke-width="5" stroke-miterlimit="10"/>
<path d="M-9.53674e-08 62.2969C90.2 62.6969 258.1 159.797 374.2 154.997C490.3 150.197 542.9 3.09695 622.5 27.8969C702.1 52.6969 781 174.997 927.4 156.897C1073.7 138.797 1084 83.797 1206.6 95.697C1329.2 107.597 1374.6 110.797 1489.3 108.897C1604 106.997 1619 19.897 1710.8 5.197C1802.6 -9.503 1859.8 7.79685 1919 46.7969" transform="translate(0.5 622.402)" stroke="black" stroke-width="5" stroke-miterlimit="10"/>
<path d="M-9.53674e-08 63.2773C90 63.2773 263 160.277 380 155.277C497 150.277 550 0.277287 630 27.2773C710 54.2773 786 178.277 934 161.277C1082 144.277 1086 82.2773 1210 95.2773C1334 108.277 1377 115.277 1492 113.277C1607 111.277 1621 17.2773 1713 4.27729C1805 -8.72271 1861 8.27729 1919 50.2773" transform="translate(0.5 641.223)" stroke="black" stroke-width="5" stroke-miterlimit="10"/>
</svg>
